<svg height="512" viewBox="0 0 64 64" width="512" xmlns="http://www.w3.org/2000/svg"><path d="m32.15 41.81a8.47 8.47 0 0 1 .85 3.69c0 8.5-8.5 11.5-8.5 11.5s-8.5-3-8.5-11.5a8.51 8.51 0 0 1 8.5-8.5 8.37 8.37 0 0 1 2.93.53c-.43-.53-.95-1.01-1.43-1.53h-2a3.93 3.93 0 0 0 -2.24.69 4 4 0 0 0 -3.76-2.69h-3v-2h4a4 4 0 0 1 3.76 2.69 3.88 3.88 0 0 1 1.59-.63 50.76 50.76 0 0 1 -11.35-31.06h-10v58h58v-8.09a50.78 50.78 0 0 1 -28.85-11.1z" fill="#cff09e"/><path d="m7 15v42h17.5s-8.5-3-8.5-11.5a8.5 8.5 0 0 1 17 0c0 8.5-8.5 11.5-8.5 11.5h32.5v-42zm25 21h-8a3.93 3.93 0 0 0 -2.24.69 4 4 0 0 0 -3.76-2.69h-3v-2h4a4 4 0 0 1 3.76 2.69 3.93 3.93 0 0 1 2.24-.69h7z" fill="#cff09e"/><path d="m19 15v17a4 4 0 0 1 3.76 2.69 3.93 3.93 0 0 1 2.24-.69h7v2h-8a3.93 3.93 0 0 0 -2.24.69 4 4 0 0 0 -2.76-2.55v4.86a8.41 8.41 0 0 1 5.5-2 8.51 8.51 0 0 1 8.5 8.5 12.09 12.09 0 0 1 -.09 1.5h24.09v-32z" fill="#79bd9a"/><path d="m16 45.5a8.46 8.46 0 0 1 3-6.5v-4.86a4.09 4.09 0 0 0 -1-.14h-3v-2h4v-17h-12v42l9.56-8a11.41 11.41 0 0 1 -.56-3.5z" fill="#a8dba8"/><path d="m8 7h4v4h-4z" fill="#a8dba8"/><path d="m16 7h4v4h-4z" fill="#a8dba8"/><path d="m24 7h4v4h-4z" fill="#a8dba8"/><path d="m32 38v-2h-8a3.93 3.93 0 0 0 -2.24.69 4 4 0 0 0 -3.76-2.69h-3v2h2a2 2 0 0 1 2 2v1a8.46 8.46 0 0 0 -3 6.47c0 8.53 8.5 11.53 8.5 11.53a14.31 14.31 0 0 0 2.94-1.58 8.48 8.48 0 0 1 2.56-16.42 8.21 8.21 0 0 0 -1.64-1.09l.14.06z" fill="#cff09e"/><path d="m22.76 34.69a3.93 3.93 0 0 1 2.24-.69v-6h-4v4.55a4 4 0 0 1 1.76 2.14z" fill="#cff09e"/><path d="m38 6h18v5h-18z" fill="#a8dba8"/><path d="m41 45h8v8h-8z" fill="#79bd9a"/><path d="m53 48.5-4 4.5v-8l4-4z" fill="#a8dba8"/><path d="m53 41h-7.5l-4.5 4h8z" fill="#cff09e"/><path d="m42 19h-14v4h4v3l3 5 3-5v-3h4z" fill="#a8dba8"/><path d="m35 31 3-5h-6z" fill="#cff09e"/><g fill="#3b8686"><path d="m61 2h-58a1 1 0 0 0 -1 1v58a1 1 0 0 0 1 1h58a1 1 0 0 0 1-1v-58a1 1 0 0 0 -1-1zm-1 58h-56v-56h56z"/><path d="m7 58h50a1 1 0 0 0 1-1v-42a1 1 0 0 0 -1-1h-50a1 1 0 0 0 -1 1v42a1 1 0 0 0 1 1zm1-36h19v1a1 1 0 0 0 1 1h3v2a1 1 0 0 0 .07.34.36.36 0 0 0 0 .09v.08l2.93 4.82a4 4 0 0 0 4 3.67 1 1 0 0 1 0 2h-5v-3a1 1 0 0 0 -1-1h-6v-5a1 1 0 0 0 -1-1h-4a1 1 0 0 0 -1 1v3.11a4.79 4.79 0 0 0 -1-.11h-4a1 1 0 0 0 -1 1v4a1 1 0 0 0 1 1h2a1 1 0 0 1 1 1v.6a9.45 9.45 0 0 0 -3 6.9 12.73 12.73 0 0 0 5.67 10.5h-12.67zm33 0h-3a1 1 0 0 0 -1 1v2h-4v-2a1 1 0 0 0 -1-1h-3v-2h12zm-6 7.06-1.23-2.06h2.46zm-9 7.94a3 3 0 0 0 -3 3v2a1 1 0 0 0 2 0v-2a1 1 0 0 1 1-1h2.24a7.48 7.48 0 0 1 3.76 6.5c0 6.84-6 9.79-7.5 10.42-1.5-.63-7.5-3.64-7.5-10.42a7.51 7.51 0 0 1 1-3.72v.22a1 1 0 0 0 2 0v-4a3 3 0 0 0 -3-3h-1v-2h3a3 3 0 0 1 2.82 2 1 1 0 0 0 1.5.49 3 3 0 0 1 1.68-.49h6v2zm-2-3.89a4.42 4.42 0 0 0 -.79.22 5 5 0 0 0 -1.21-1.33v-3h2zm4.33 22.89a12.73 12.73 0 0 0 5.67-10.5 9.46 9.46 0 0 0 -2.6-6.5h6.6a3 3 0 0 0 0-6 2 2 0 0 1 -2-1.76l2.84-4.73v-.08a.36.36 0 0 0 0-.09 1 1 0 0 0 .16-.34v-2h3a1 1 0 0 0 1-1v-1h13v34zm27.67-40v4h-13v-1a1 1 0 0 0 -1-1h-14a1 1 0 0 0 -1 1v1h-19v-4z"/><path d="m8 12h4a1 1 0 0 0 1-1v-4a1 1 0 0 0 -1-1h-4a1 1 0 0 0 -1 1v4a1 1 0 0 0 1 1zm1-4h2v2h-2z"/><path d="m16 12h4a1 1 0 0 0 1-1v-4a1 1 0 0 0 -1-1h-4a1 1 0 0 0 -1 1v4a1 1 0 0 0 1 1zm1-4h2v2h-2z"/><path d="m24 12h4a1 1 0 0 0 1-1v-4a1 1 0 0 0 -1-1h-4a1 1 0 0 0 -1 1v4a1 1 0 0 0 1 1zm1-4h2v2h-2z"/><path d="m20 47a1 1 0 0 0 1 1 2 2 0 0 1 2 2v1a1 1 0 0 0 2 0v-1a4 4 0 0 0 -4-4 1 1 0 0 0 -1 1z"/><path d="m27 50a1 1 0 0 0 1-1v-1a1 1 0 0 1 1-1 1 1 0 0 0 0-2 3 3 0 0 0 -3 3v1a1 1 0 0 0 1 1z"/><path d="m38 12h18a1 1 0 0 0 1-1v-5a1 1 0 0 0 -1-1h-18a1 1 0 0 0 -1 1v5a1 1 0 0 0 1 1zm1-5h16v3h-16z"/><path d="m54 40.81v-.15-.08l-.08-.13-.1-.11-.11-.1-.13-.07-.08-.05h-.15-.14-7.71a1 1 0 0 0 -.66.25l-4.5 4-.06.08a.9.9 0 0 0 -.14.2.49.49 0 0 0 0 .11 1.18 1.18 0 0 0 -.06.27s0 0 0 .06v8a1 1 0 0 0 1 1h8a1.06 1.06 0 0 0 .4-.08l.07-.05a1.24 1.24 0 0 0 .26-.19l4-4.5a1 1 0 0 0 .19-.77v-7.5s0 0 0 0a.68.68 0 0 0 0-.19zm-8.12 1.19h4.71l-2 2h-5zm-3.88 4h6v6h-6zm10 2.12-2 2.25v-5l2-2z"/><path d="m47 32h5a1 1 0 0 0 0-2h-5a1 1 0 0 0 0 2z"/><path d="m47 36h3a1 1 0 0 0 0-2h-3a1 1 0 0 0 0 2z"/><path d="m47 28h2a1 1 0 0 0 0-2h-2a1 1 0 0 0 0 2z"/></g></svg>