<svg height="512" viewBox="0 0 64 64" width="512" xmlns="http://www.w3.org/2000/svg"><path d="m33 49a18 18 0 0 1 -18-18v-24h-3a4 4 0 0 0 -4 4v46a4 4 0 0 0 4 4h26a4 4 0 0 0 4-4v-8z" fill="#cff09e"/><rect fill="#a8dba8" height="4" rx="2" width="12" x="19" y="53"/><path d="m27.56 36.24a2 2 0 0 1 2.83-2.83l.61.59v-13a2 2 0 0 0 -2-2h-14a2 2 0 0 0 -2 2v14a2 2 0 0 0 2 2h13.32z" fill="#79bd9a"/><path d="m49 12h-12a2 2 0 0 0 -2 2v5a2 2 0 0 0 2 2v5l4.86-5h7.14a2 2 0 0 0 2-2v-5a2 2 0 0 0 -2-2z" fill="#79bd9a"/><circle cx="10" cy="47" fill="#79bd9a" r="7"/><path d="m27 26h-3v-3h-4v3h-3v4h3v3h4v-3h3z" fill="#a8dba8"/><path d="m8 50v-6l5 2.93z" fill="#a8dba8"/><path d="m35.54 34.32a1.93 1.93 0 0 0 -.91.51 2 2 0 0 0 0 2.83l2.83 2.83a2 2 0 0 0 0-2.83l-1.41-1.42a2 2 0 0 1 -.51-1.92z" fill="#cff09e"/><path d="m38.37 31.49a2 2 0 0 0 -.91.51 2 2 0 0 0 0 2.83l2.83 2.83a2 2 0 0 0 0-2.83l-1.41-1.42a2 2 0 0 1 -.51-1.92z" fill="#cff09e"/><path d="m43.12 34.83a2 2 0 0 0 0-2.83 2 2 0 0 1 -.51-1.93 2 2 0 0 0 -.91.52 2 2 0 0 0 0 2.82z" fill="#cff09e"/><path d="m49.85 50.76a8.76 8.76 0 0 0 -4.73-3.34l-.73-.21a17.06 17.06 0 0 1 -7.39-4.34l-8-8a2 2 0 0 1 -.51-1.93 2.12 2.12 0 0 0 -.91.51 2 2 0 0 0 0 2.83l7.69 7.69h-4.27a2 2 0 0 0 0 4h8.25l1 1 4.24 1.41 8.81 10.62h7.7v-7.51a8.8 8.8 0 0 1 -11.15-2.73z" fill="#cff09e"/><g fill="#3b8686"><path d="m21 58h8a3 3 0 0 0 0-6h-8a3 3 0 0 0 0 6zm0-4h8a1 1 0 0 1 0 2h-8a1 1 0 0 1 0-2z"/><circle cx="13" cy="12" r="1"/><circle cx="17" cy="12" r="1"/><circle cx="21" cy="12" r="1"/><path d="m61.64 47.72-7.76-6.41-1.33-4a1 1 0 0 0 -.24-.39l-7.07-7.07a3 3 0 0 0 -2.24-.85v-7h6a3 3 0 0 0 3-3v-5a3 3 0 0 0 -3-3h-6a5 5 0 0 0 -5-5h-26a5 5 0 0 0 -5 5v28.59a8 8 0 0 0 0 14.82v2.59a5 5 0 0 0 5 5h26a5 5 0 0 0 5-5v-6.07l1 .31 8.58 10.4a1 1 0 0 0 .77.36 1 1 0 0 0 .64-.23 1 1 0 0 0 .13-1.41l-8.82-10.61a.94.94 0 0 0 -.45-.31l-4-1.34-.85-.88a1 1 0 0 0 -.71-.29h-8.29a1 1 0 0 1 0-2h4.25a1 1 0 0 0 .92-.62 1 1 0 0 0 -.17-1.09l-7.69-7.68a1 1 0 0 1 0-1.42 1 1 0 0 1 1.41 0l.61.61 3.63 3.63 2.82 2.82a1 1 0 0 0 .71.3 1 1 0 0 0 .71-1.71l-2.86-2.77a1 1 0 0 1 -.29-.71 1 1 0 0 1 .29-.7 1 1 0 0 1 1.41 0l2.82 2.82a1 1 0 0 0 .71.3 1 1 0 0 0 .72-1.71l-2.83-2.83a1 1 0 0 1 1.41-1.41l1.42 1.36 1.41 1.42a1 1 0 0 0 1.42 0 1 1 0 0 0 0-1.42l-1.42-1.41a1 1 0 0 1 0-1.42 1 1 0 0 1 1.42 0l6.9 6.91 1.34 4a1.07 1.07 0 0 0 .31.45l8 6.59a1 1 0 0 0 1.41-.13 1 1 0 0 0 -.15-1.39zm-12.64-34.72a1 1 0 0 1 1 1v5a1 1 0 0 1 -1 1h-7.14a1 1 0 0 0 -.71.3l-3.15 3.24v-2.54a1 1 0 0 0 -1-1 1 1 0 0 1 -1-1v-5a1 1 0 0 1 1-1zm-45 34a6 6 0 1 1 6 6 6 6 0 0 1 -6-6zm22.86-14.29a3 3 0 0 0 -.64 3.29h-11.22a1 1 0 0 1 -1-1v-14a1 1 0 0 1 1-1h14a1 1 0 0 1 1 1v11a3 3 0 0 0 -3.14.71zm9.89-1.42a3 3 0 0 0 -.87 2 2.93 2.93 0 0 0 -2 .87 3.15 3.15 0 0 0 -.59.83l-1.29-1.38v-12.61a3 3 0 0 0 -3-3h-14a3 3 0 0 0 -3 3v14a3 3 0 0 0 3 3h12.91l4.93 4.93h-1.84a3 3 0 0 0 0 6h7.84l.74.75a1.06 1.06 0 0 0 .39.24l1 .34v6.74a3 3 0 0 1 -3 3h-25.97a3 3 0 0 1 -3-3v-2.07a8.26 8.26 0 0 0 1 .07 8 8 0 0 0 0-16 8.26 8.26 0 0 0 -1 .07v-28.07a3 3 0 0 1 3-3h26a3 3 0 0 1 3 3h-4a3 3 0 0 0 -3 3v5a3 3 0 0 0 2 2.83v4.17a1 1 0 0 0 1 1 1 1 0 0 0 .72-.3l3.28-3.38v6.56a3.09 3.09 0 0 0 -.64.93 3 3 0 0 0 -3.61.48z"/><path d="m27 25h-2v-2a1 1 0 0 0 -1-1h-4a1 1 0 0 0 -1 1v2h-2a1 1 0 0 0 -1 1v4a1 1 0 0 0 1 1h2v2a1 1 0 0 0 1 1h4a1 1 0 0 0 1-1v-2h2a1 1 0 0 0 1-1v-4a1 1 0 0 0 -1-1zm-1 4h-2a1 1 0 0 0 -1 1v2h-2v-2a1 1 0 0 0 -1-1h-2v-2h2a1 1 0 0 0 1-1v-2h2v2a1 1 0 0 0 1 1h2z"/><path d="m38 17a1 1 0 0 0 1 1h4a1 1 0 0 0 0-2h-4a1 1 0 0 0 -1 1z"/><circle cx="47" cy="17" r="1"/><path d="m14 46.92a1 1 0 0 0 -.49-.85l-5-2.93a1 1 0 0 0 -1.51.86v6a1 1 0 0 0 .51.87 1 1 0 0 0 .49.13 1 1 0 0 0 .52-.15l5-3.07a1 1 0 0 0 .48-.86zm-5 1.29v-2.46l2.06 1.25z"/></g></svg>