<svg height="512" viewBox="0 0 64 64" width="512" xmlns="http://www.w3.org/2000/svg"><path d="m45 40v4h4v4h-4v4h8v-12z" fill="#a8dba8"/><path d="m53 43h8v6h-8z" fill="#a8dba8"/><g fill="#cff09e"><path d="m58 39h-1v4h4v-1a3 3 0 0 1 -3-3z"/><path d="m61 51v-2h-4v12h4v-2a2 2 0 0 1 -2-2v-4a2 2 0 0 1 2-2z"/><path d="m40 33h-8a6 6 0 0 1 -6-6v-6h-4v10a6 6 0 0 0 6 6h8a6 6 0 0 0 5.74-4.26 5.86 5.86 0 0 1 -1.74.26z"/><path d="m24 5v-2a2 2 0 0 0 -2 2v4h4v-2a2 2 0 0 1 -2-2z"/><path d="m24 15v-2h-2v6h4v-2a2 2 0 0 1 -2-2z"/><path d="m32 5v-2a2 2 0 0 0 -2 2v4h4v-2a2 2 0 0 1 -2-2z"/><path d="m32 15v-2h-2v6h4v-2a2 2 0 0 1 -2-2z"/><path d="m40 5v-2a2 2 0 0 0 -2 2v4h4v-2a2 2 0 0 1 -2-2z"/><path d="m40 15v-2h-2v6h4v-2a2 2 0 0 1 -2-2z"/><path d="m50 15v-.95a2.5 2.5 0 0 0 -2 2.45v3.5h5v-2a3 3 0 0 1 -3-3z"/><path d="m47 26a8.27 8.27 0 0 1 .65-3.28l-.81-1-7 5.69 3.16 3.87 4.17-3.41a8.65 8.65 0 0 1 -.17-1.87z"/></g><path d="m22 29h12a0 0 0 0 1 0 0v8a0 0 0 0 1 0 0h-6a6 6 0 0 1 -6-6v-2a0 0 0 0 1 0 0z" fill="#79bd9a"/><path d="m28 37h8v4h-8z" fill="#cff09e"/><path d="m36 58a8 8 0 0 1 -8-8v-9h-.38a4 4 0 0 0 -4 3.6l-1.62 16.4h20l-.3-3z" fill="#cff09e"/><path d="m31 47h-7.6l-.8 8h8.4z" fill="#79bd9a"/><path d="m36 53v8h6l-.8-8z" fill="#79bd9a"/><circle cx="24" cy="21" fill="#a8dba8" r="3"/><circle cx="32" cy="21" fill="#a8dba8" r="3"/><circle cx="40" cy="21" fill="#a8dba8" r="3"/><circle cx="42" cy="29" fill="#a8dba8" r="4"/><path d="m3 21h8v6h-8z" fill="#a8dba8"/><path d="m3 31h1a3 3 0 0 1 3-3v-1h-4z" fill="#cff09e"/><path d="m5 17v-14h-2v18h4v-2a2 2 0 0 1 -2-2z" fill="#cff09e"/><path d="m59 38a3 3 0 0 0 -3 3v1h-2v-2a1 1 0 0 0 -1-1h-8a1 1 0 0 0 -1 1v4a1 1 0 0 0 1 1h3v2h-3a1 1 0 0 0 -1 1v4a1 1 0 0 0 1 1h8a1 1 0 0 0 1-1v-2h2v11a1 1 0 0 0 2 0v-11h2v11a1 1 0 0 0 2 0v-20a3 3 0 0 0 -3-3zm-1 3a1 1 0 0 1 2 0v1h-2zm-6 10h-6v-2h3a1 1 0 0 0 1-1v-4a1 1 0 0 0 -1-1h-3v-2h6zm2-3v-4h6v4z" fill="#3b8686"/><circle cx="30" cy="33" fill="#3b8686" r="1"/><circle cx="26" cy="33" fill="#3b8686" r="1"/><path d="m42.2 52.9-.84-8.4a5 5 0 0 0 -4.36-4.44v-2.14a7 7 0 0 0 5.31-4 5 5 0 0 0 4.69-4.56l3.67-3a1 1 0 0 0 .14-1.4l-.81-.96 1.22-1.36a1 1 0 0 0 .28-.64v-1h1.5a1 1 0 0 0 1-1v-3.5a3.5 3.5 0 0 0 -7 0v3.5a1 1 0 0 0 1 1h1.5v.62l-.76.84-1.13-1.38a1 1 0 0 0 -1.41-.14l-3.05 2.5a3.93 3.93 0 0 0 -.15-5.06v-5.38a1 1 0 0 0 -1-1h-1v-2h1a1 1 0 0 0 1-1v-4a3 3 0 0 0 -6 0v4a1 1 0 0 0 1 1h1v2h-1a1 1 0 0 0 -1 1v5.38a4 4 0 0 0 -.86 1.62h-.28a4 4 0 0 0 -.86-1.62v-5.38a1 1 0 0 0 -1-1h-1v-2h1a1 1 0 0 0 1-1v-4a3 3 0 0 0 -6 0v4a1 1 0 0 0 1 1h1v2h-1a1 1 0 0 0 -1 1v5.38a4 4 0 0 0 -.86 1.62h-.28a4 4 0 0 0 -.86-1.62v-5.38a1 1 0 0 0 -1-1h-1v-2h1a1 1 0 0 0 1-1v-4a3 3 0 0 0 -6 0v4a1 1 0 0 0 1 1h1v2h-1a1 1 0 0 0 -1 1v5.38a3.93 3.93 0 0 0 0 5.24v7.38a7 7 0 0 0 6 6.92v2.14a5 5 0 0 0 -4.36 4.44l-.72 7.24-.32 3.16-.6 6a1 1 0 0 0 .9 1.1 1 1 0 0 0 1.1-.9l.51-5.1h7.49a1 1 0 0 0 1-1v-8a1 1 0 0 0 -1-1h-6.5l.13-1.3a3 3 0 0 1 3-2.7h8.76a3 3 0 0 1 3 2.7l.71 7.3h-4.1a1 1 0 0 0 -1 1v8a1 1 0 0 0 2 0v-3h3.69l.31 3.1a1 1 0 0 0 1 .9h.1a1 1 0 0 0 .9-1.1zm6.8-36.4a1.5 1.5 0 0 1 3 0v2.5h-3zm-10-11.5a1 1 0 0 1 2 0v3h-2zm-8 0a1 1 0 0 1 2 0v3h-2zm-8 0a1 1 0 0 1 2 0v3h-2zm7 45h-3a1 1 0 0 0 0 2h3v2h-6.29l.6-6h5.69zm6-14h-1v-7a1 1 0 0 0 -1-1h-11v-3.14a4.09 4.09 0 0 0 1 .14 4 4 0 0 0 3.86-3h.28a4 4 0 0 0 7.72 0h.28a4 4 0 0 0 3 2.9 5 5 0 0 0 1.06 8.76 5 5 0 0 1 -4.2 2.34zm-10-15a2 2 0 1 1 -2-2 2 2 0 0 1 2 2zm8 0a2 2 0 1 1 -2-2 2 2 0 0 1 2 2zm8 0a2 2 0 1 1 -2-2 2 2 0 0 1 2 2zm0 11a3 3 0 1 1 3-3 3 3 0 0 1 -3 3zm4.69-8.88 1.9 2.33-2 1.62a5.06 5.06 0 0 0 -2-2.29zm-5.69-9.12v3.14a3.64 3.64 0 0 0 -2 0v-3.14zm-8 0v3.14a3.64 3.64 0 0 0 -2 0v-3.14zm-8 0v3.14a3.64 3.64 0 0 0 -2 0v-3.14zm-2 17v-1h10v6h-5a5 5 0 0 1 -5-5zm6 9v-2h6v2zm8 16v-2h3.29l.2 2z" fill="#3b8686"/><path d="m16 23h-4v-2a1 1 0 0 0 -1-1h-3v-17a1 1 0 0 0 -2 0v17h-2v-17a1 1 0 0 0 -2 0v26a3 3 0 0 0 6 0v-1h3a1 1 0 0 0 1-1v-2h4a1 1 0 0 0 0-2zm-10 6a1 1 0 0 1 -2 0v-1h2zm4-3h-6v-4h6z" fill="#3b8686"/></svg>