<svg height="512" viewBox="0 0 64 64" width="512" xmlns="http://www.w3.org/2000/svg"><path d="m22 30v-27h-5a4 4 0 0 0 -4 4v50a4 4 0 0 0 4 4h30a4 4 0 0 0 4-4v-5h-7a22 22 0 0 1 -22-22z" fill="#cff09e"/><path d="m13 41h38a0 0 0 0 1 0 0v16a4 4 0 0 1 -4 4h-30a4 4 0 0 1 -4-4v-16a0 0 0 0 1 0 0z" fill="#a8dba8"/><path d="m17 53h4v4h-4z" fill="#cff09e"/><path d="m25 53h14v4h-14z" fill="#cff09e"/><path d="m43 53h4v4h-4z" fill="#cff09e"/><path d="m19 45h4v4h-4z" fill="#cff09e"/><path d="m27 45h4v4h-4z" fill="#cff09e"/><path d="m35 45h4v4h-4z" fill="#cff09e"/><path d="m43 45h4v4h-4z" fill="#cff09e"/><path d="m41 13v-4a2 2 0 0 0 -2-2h-13a2 2 0 0 0 -2 2v4a2 2 0 0 0 2 2h10l7 4z" fill="#a8dba8"/><path d="m36 24h-14a2 2 0 0 0 -2 2v4a2 2 0 0 0 2 2v4l4.29-4h9.71a2 2 0 0 0 2-2v-4a2 2 0 0 0 -2-2z" fill="#a8dba8"/><path d="m17 16h-4v-4h-6v4h-4v6h4v4h6v-4h4z" fill="#79bd9a"/><circle cx="52" cy="20" fill="#cff09e" r="9"/><circle cx="52" cy="20" fill="#79bd9a" r="4"/><path d="m57 26a2 2 0 0 0 -2-2h-6a2 2 0 0 0 -2 2v1.48a9 9 0 0 0 10 0z" fill="#79bd9a"/><g fill="#3b8686"><path d="m52 10v-3a5 5 0 0 0 -5-5h-30a5 5 0 0 0 -5 5v4h-5a1 1 0 0 0 -1 1v3h-3a1 1 0 0 0 -1 1v6a1 1 0 0 0 1 1h3v3a1 1 0 0 0 1 1h5v30a5 5 0 0 0 5 5h30a5 5 0 0 0 5-5v-27a10 10 0 0 0 0-20zm-45 11h-3v-4h3a1 1 0 0 0 1-1v-3h4v3a1 1 0 0 0 1 1h3v4h-3a1 1 0 0 0 -1 1v3h-4v-3a1 1 0 0 0 -1-1zm43 36a3 3 0 0 1 -3 3h-30a3 3 0 0 1 -3-3v-15h36zm0-17h-36v-17h3a1 1 0 0 0 1-1v-6a1 1 0 0 0 -1-1h-3v-8a3 3 0 0 1 3-3h30a3 3 0 0 1 3 3v3.2a10 10 0 0 0 -7 5.54l-1-2.9v-3.84a3 3 0 0 0 -3-3h-13a3 3 0 0 0 -3 3v4a3 3 0 0 0 3 3h9.73l6.27 3.59v.41a10 10 0 0 0 8 9.8zm-10-26.68 1.17 3.51-4.72-2.7a1.09 1.09 0 0 0 -.45-.13h-10a1 1 0 0 1 -1-1v-4a1 1 0 0 1 1-1h13a1 1 0 0 1 1 1v4a1.19 1.19 0 0 0 .05.32zm8 13.6v-.92a1 1 0 0 1 1-1h6a1 1 0 0 1 1 1v.92a7.95 7.95 0 0 1 -8 0zm5-7.92h-3.82a3 3 0 1 1 0 2h3.82a1 1 0 0 0 0-2zm4.93 6.35a3 3 0 0 0 -2.07-2.21 5 5 0 0 0 1.14-3.14 5 5 0 0 0 -10 0 5 5 0 0 0 1.14 3.14 3 3 0 0 0 -2.07 2.21 8 8 0 1 1 11.86 0z"/><path d="m17 58h4a1 1 0 0 0 1-1v-4a1 1 0 0 0 -1-1h-4a1 1 0 0 0 -1 1v4a1 1 0 0 0 1 1zm1-4h2v2h-2z"/><path d="m24 57a1 1 0 0 0 1 1h14a1 1 0 0 0 1-1v-4a1 1 0 0 0 -1-1h-14a1 1 0 0 0 -1 1zm2-3h12v2h-12z"/><path d="m43 58h4a1 1 0 0 0 1-1v-4a1 1 0 0 0 -1-1h-4a1 1 0 0 0 -1 1v4a1 1 0 0 0 1 1zm1-4h2v2h-2z"/><path d="m19 50h4a1 1 0 0 0 1-1v-4a1 1 0 0 0 -1-1h-4a1 1 0 0 0 -1 1v4a1 1 0 0 0 1 1zm1-4h2v2h-2z"/><path d="m27 50h4a1 1 0 0 0 1-1v-4a1 1 0 0 0 -1-1h-4a1 1 0 0 0 -1 1v4a1 1 0 0 0 1 1zm1-4h2v2h-2z"/><path d="m35 50h4a1 1 0 0 0 1-1v-4a1 1 0 0 0 -1-1h-4a1 1 0 0 0 -1 1v4a1 1 0 0 0 1 1zm1-4h2v2h-2z"/><path d="m43 50h4a1 1 0 0 0 1-1v-4a1 1 0 0 0 -1-1h-4a1 1 0 0 0 -1 1v4a1 1 0 0 0 1 1zm1-4h2v2h-2z"/><path d="m31 10h-3a1 1 0 0 0 0 2h3a1 1 0 0 0 0-2z"/><path d="m36 23h-14a3 3 0 0 0 -3 3v4a3 3 0 0 0 2 2.83v3.17a1 1 0 0 0 .6.92 1.14 1.14 0 0 0 .4.08 1 1 0 0 0 .68-.27l4-3.73h9.32a3 3 0 0 0 3-3v-4a3 3 0 0 0 -3-3zm1 7a1 1 0 0 1 -1 1h-9.71a1 1 0 0 0 -.69.27l-2.6 2.43v-1.7a1 1 0 0 0 -1-1 1 1 0 0 1 -1-1v-4a1 1 0 0 1 1-1h14a1 1 0 0 1 1 1z"/><circle cx="24" cy="28" r="1"/><circle cx="28" cy="28" r="1"/><path d="m34 27h-2a1 1 0 0 0 0 2h2a1 1 0 0 0 0-2z"/><circle cx="35" cy="11" r="1"/><circle cx="17" cy="7" r="1"/><circle cx="21" cy="7" r="1"/></g></svg>