<svg height="512" viewBox="0 0 64 64" width="512" xmlns="http://www.w3.org/2000/svg"><path d="m5 31h4a2 2 0 0 1 2 2v24a0 0 0 0 1 0 0h-8a0 0 0 0 1 0 0v-24a2 2 0 0 1 2-2z" fill="#a8dba8"/><path d="m11 43h15a2 2 0 0 1 2 2v12a0 0 0 0 1 0 0h-17a0 0 0 0 1 0 0v-14a0 0 0 0 1 0 0z" fill="#a8dba8"/><circle cx="7" cy="59" fill="#79bd9a" r="2"/><circle cx="25" cy="59" fill="#79bd9a" r="2"/><g fill="#cff09e"><path d="m15 40v-5a2 2 0 0 1 4 0 4 4 0 0 0 -8 0v8h7a3 3 0 0 1 -3-3z"/><path d="m17 39v-6a2 2 0 0 0 -2 2v5a3 3 0 0 0 3 3h5a2 2 0 0 0 2-2h-6a2 2 0 0 1 -2-2z"/><path d="m18 29a4 4 0 0 1 -4-4 3.93 3.93 0 0 1 .53-1.95 4 4 0 1 0 3.94 5.95 3.75 3.75 0 0 1 -.47 0z"/><path d="m32 55a2 2 0 0 1 -2-2v-4a2 2 0 0 0 -2-2v10h8v-2z"/></g><path d="m48 33h4v8h-4z" fill="#79bd9a"/><circle cx="41" cy="59" fill="#79bd9a" r="2"/><circle cx="51" cy="59" fill="#79bd9a" r="2"/><path d="m43 29h-3v4h12v-2h-7a2 2 0 0 1 -2-2z" fill="#cff09e"/><path d="m46 39a4 4 0 0 1 -4-4v-2h-2v8h8v-2z" fill="#cff09e"/><path d="m52 31h9v3h-9z" fill="#cff09e"/><path d="m34 11h3v4h-3z" fill="#cff09e"/><path d="m37 15h-3v4h6v-1a3 3 0 0 1 -3-3z" fill="#a8dba8"/><path d="m61 35a1 1 0 0 0 1-1v-5a1 1 0 0 0 -1-1h-14v-20h7v3a1 1 0 0 0 2 0v-4a1 1 0 0 0 -1-1h-8v-3a1 1 0 0 0 -2 0v3h-8a1 1 0 0 0 -1 1v3h-2a1 1 0 0 0 -1 1v8a1 1 0 0 0 1 1h2v4a14 14 0 0 1 -14 14h-2v-3a5 5 0 0 0 -2-4 5 5 0 1 0 -6 0 6.4 6.4 0 0 0 -.5.41 3 3 0 0 0 -2.5-1.41h-4a3 3 0 0 0 -3 3v24a1 1 0 0 0 1 1h1.18a3 3 0 1 0 5.64 0h12.36a3 3 0 1 0 5.64 0h8.18a1 1 0 0 0 1-1v-2a3 3 0 0 0 -3-3h-1v-3a5 5 0 0 0 -4.16-4.91 3 3 0 0 0 -2.84-2.09h-.18a3 3 0 0 0 .18-1 2.91 2.91 0 0 0 -.38-1.43 16 16 0 0 0 12.38-15.57v-4h2a1 1 0 0 0 1-1v-8a1 1 0 0 0 -1-1h-2v-2h7v20h-5a1 1 0 0 0 -1 1v12a1 1 0 0 0 1 1h5v11h-4a1 1 0 0 0 -1 1v2.18a3 3 0 1 0 2 0v-1.18h8v1.18a3 3 0 1 0 2 0v-2.18a1 1 0 0 0 -1-1h-4v-11h3v4.39a9.6 9.6 0 0 0 9.61 9.61h1.39a1 1 0 0 0 0-2h-1.39a7.62 7.62 0 0 1 -7.61-7.61v-4.39a1 1 0 0 0 1-1v-3a2 2 0 0 1 2 2v7a4 4 0 0 0 4 4h2a1 1 0 0 0 0-2h-2a2 2 0 0 1 -2-2v-7a4 4 0 0 0 -4-4v-1zm-49-8a3 3 0 1 1 3 3 3 3 0 0 1 -3-3zm-8 6a1 1 0 0 1 1-1h4a1 1 0 0 1 1 1v23h-6zm4 26a1 1 0 1 1 -1-1 1 1 0 0 1 1 1zm18 0a1 1 0 1 1 -1-1 1 1 0 0 1 1 1zm5-10v4a1 1 0 0 0 1 1h2a1 1 0 0 1 1 1v1h-6v-9.83a3 3 0 0 1 2 2.83zm-4-4v11h-15v-12h14a1 1 0 0 1 1 1zm-4-5a1 1 0 0 1 0 2h-5a2 2 0 0 1 -2-2v-5a1 1 0 0 0 -2 0v5a3.91 3.91 0 0 0 .56 2h-2.56v-7a3 3 0 0 1 6 0v4a1 1 0 0 0 1 1zm16-22h-4v-2h4zm0-4h-4v-2h4zm2 46a1 1 0 1 1 1-1 1 1 0 0 1 -1 1zm10 0a1 1 0 1 1 1-1 1 1 0 0 1 -1 1zm9-27h-7v-3h7zm-9 7h-2v-6h2zm-10-10h10v2h-10zm0 10v-2h3a1 1 0 0 0 0-2h-3v-2h6v6z" fill="#3b8686"/></svg>