<svg height="512" viewBox="0 0 64 64" width="512" xmlns="http://www.w3.org/2000/svg"><path d="m7 3v4h10v16h4v-20z" fill="#a8dba8"/><path d="m6 15v-8h-3v20h14v-3h-2a9 9 0 0 1 -9-9z" fill="#cff09e"/><path d="m45 43v10h16l-11-10z" fill="#cff09e"/><path d="m43 36a5.94 5.94 0 0 1 -4.13-1.66 8 8 0 0 1 -9.4.25 5 5 0 0 1 -8.47-3.59 5.5 5.5 0 0 1 .12-1.08 5 5 0 1 0 6.35 7.67 8 8 0 0 0 9.4-.25 5.94 5.94 0 0 0 4.13 1.66 6 6 0 0 0 5.76-4.33 6 6 0 0 1 -3.76 1.33z" fill="#cff09e"/><path d="m45 3h16v8h-16z" fill="#a8dba8"/><path d="m45 11h16v8h-16z" fill="#a8dba8"/><circle cx="54" cy="25" fill="#a8dba8" r="2"/><path d="m3 43h18v18h-18z" fill="#79bd9a"/><path d="m17 50h-3v-3h-4v3h-3v4h3v3h4v-3h3z" fill="#a8dba8"/><g fill="#3b8686"><path d="m8 14h1v1a1 1 0 0 0 2 0v-1h1a1 1 0 0 0 0-2h-1v-1a1 1 0 0 0 -2 0v1h-1a1 1 0 0 0 0 2z"/><path d="m13 18h-6a1 1 0 0 0 0 2h6a1 1 0 0 0 0-2z"/><path d="m13 22h-6a1 1 0 0 0 0 2h6a1 1 0 0 0 0-2z"/><path d="m55 60h-10a1 1 0 0 0 0 2h10a1 1 0 0 0 0-2z"/><path d="m61 60h-2a1 1 0 0 0 0 2h2a1 1 0 0 0 0-2z"/><path d="m61 2h-16a1 1 0 0 0 -1 1v16a1 1 0 0 0 1 1h8v2.18a3 3 0 0 0 -1.82 1.82h-8.18a1 1 0 0 0 -1 1v1.08a6.63 6.63 0 0 0 -1-.08 6.78 6.78 0 0 0 -1.42.15 9 9 0 0 0 -7.58-4.15c-.34 0-.67 0-1 .06v-8.06a1 1 0 0 0 -1-1h-8v-10a1 1 0 0 0 -1-1h-14a1 1 0 0 0 -1 1v3h-3a1 1 0 0 0 -1 1v20a1 1 0 0 0 1 1h14a1 1 0 0 0 1-1v-3h3a1 1 0 0 0 1-1v-8h7v7.52a9 9 0 0 0 -5.48 5.48 6 6 0 0 0 -5.43 5h-6.09a1 1 0 0 0 -1 1v8h-8a1 1 0 0 0 -1 1v18a1 1 0 0 0 1 1h18a1 1 0 0 0 1-1v-18a1 1 0 0 0 -1-1h-8v-7h5.09a6 6 0 0 0 5.91 5 5.92 5.92 0 0 0 3.56-1.18 9 9 0 0 0 5.44 1.09v8.09a1 1 0 0 0 1 1h10v4a1 1 0 0 0 1 1h4v2h-2a1 1 0 0 0 0 2h12a1 1 0 0 0 0-2h-2v-2h4a1 1 0 0 0 1-1v-10a1 1 0 0 0 -1-1h-16a1 1 0 0 0 -1 1v4h-9v-7.55a8.78 8.78 0 0 0 1.81-.85 6.93 6.93 0 0 0 4.19 1.4 7 7 0 0 0 3-13.31v-.69h7.18a3 3 0 0 0 5.64 0h4.18a1 1 0 0 0 0-2h-4.18a3 3 0 0 0 -1.82-1.82v-2.18h6a1 1 0 0 0 1-1v-16a1 1 0 0 0 -1-1zm-45 24h-12v-18h12zm4-4h-2v-15a1 1 0 0 0 -1-1h-9v-2h12zm0 38h-16v-16h16zm35-4h-4v-2h4zm5-5.26-7.41-6.74h7.41zm-14-6.74h3.61l8.8 8h-12.41zm0-11a5 5 0 0 1 -5 5 5 5 0 0 1 -3.44-1.38 1 1 0 0 0 -.69-.28 1 1 0 0 0 -.61.21 7 7 0 0 1 -8.22.22 1 1 0 0 0 -1.27.1 4 4 0 0 1 -2.77 1.13 4 4 0 0 1 0-8h.21a1 1 0 0 0 1-.75 7 7 0 0 1 13-1.49 1 1 0 0 0 1.2.48 5.14 5.14 0 0 1 1.59-.24 5 5 0 0 1 5 5zm8-7a1 1 0 1 1 1-1 1 1 0 0 1 -1 1zm-8-22h14v6h-14zm14 14h-14v-6h14z"/><circle cx="49" cy="15" r="1"/><circle cx="53" cy="15" r="1"/><circle cx="57" cy="15" r="1"/><circle cx="49" cy="7" r="1"/><circle cx="53" cy="7" r="1"/><circle cx="57" cy="7" r="1"/><path d="m9 47v2h-2a1 1 0 0 0 -1 1v4a1 1 0 0 0 1 1h2v2a1 1 0 0 0 1 1h4a1 1 0 0 0 1-1v-2h2a1 1 0 0 0 1-1v-4a1 1 0 0 0 -1-1h-2v-2a1 1 0 0 0 -1-1h-4a1 1 0 0 0 -1 1zm2 3v-2h2v2a1 1 0 0 0 1 1h2v2h-2a1 1 0 0 0 -1 1v2h-2v-2a1 1 0 0 0 -1-1h-2v-2h2a1 1 0 0 0 1-1z"/></g></svg>