<svg height="512" viewBox="0 0 64 64" width="512" xmlns="http://www.w3.org/2000/svg"><path d="m20 10.5a7.48 7.48 0 0 1 .74-3.24 2 2 0 0 0 -2.2.94l-3 5.19 6.92 4 .53-.91a7.48 7.48 0 0 1 -2.99-5.98z" fill="#cff09e"/><circle cx="17" cy="18.86" fill="#a8dba8" r="8"/><path d="m24.5 2.87a2 2 0 0 1 2 2v4a0 0 0 0 1 0 0h-4a0 0 0 0 1 0 0v-4a2 2 0 0 1 2-2z" fill="#a8dba8" transform="matrix(.866 .5 -.5 .866 6.22 -11.46)"/><path d="m10 41v-22.49a11 11 0 0 0 -4 8.49v29a5 5 0 0 0 5 5h12a5 5 0 0 0 5-5h-3a15 15 0 0 1 -15-15z" fill="#cff09e"/><circle cx="17" cy="24" fill="#79bd9a" r="3"/><path d="m14 43a2 2 0 0 0 0 4h3v-4z" fill="#79bd9a"/><path d="m20 43h-3v4h3a2 2 0 0 0 0-4z" fill="#a8dba8"/><path d="m10 31v8h14v-8zm12 6h-6a4 4 0 0 1 -4-4h8a2 2 0 0 1 2 2z" fill="#a8dba8"/><path d="m55 54a7 7 0 0 1 -7-7v-44a6 6 0 0 0 -6 6v34a10 10 0 1 0 15.54 11z" fill="#cff09e"/><path d="m48 57a6 6 0 0 1 -3.6-10.79l1.6-1.21v-36a2 2 0 0 1 4 0v36l1.6 1.2a6 6 0 0 1 -3.6 10.8z" fill="#a8dba8"/><path d="m51.6 46.21-1.6-1.21v-29h-4v29l-1.6 1.2a6 6 0 1 0 7.2 0z" fill="#79bd9a"/><g fill="#3b8686"><path d="m17 28a4 4 0 1 0 -4-4 4 4 0 0 0 4 4zm0-6a2 2 0 1 1 -2 2 2 2 0 0 1 2-2z"/><path d="m10 30a1 1 0 0 0 -1 1v8a1 1 0 0 0 1 1h14a1 1 0 0 0 1-1v-8a1 1 0 0 0 -1-1zm13 8h-12v-6h12z"/><path d="m14 36h2a1 1 0 0 0 0-2h-2a1 1 0 0 0 0 2z"/><circle cx="20" cy="35" r="1"/><path d="m20 42h-6a3 3 0 0 0 0 6h6a3 3 0 0 0 0-6zm-7 3a1 1 0 0 1 1-1h2v2h-2a1 1 0 0 1 -1-1zm7 1h-2v-2h2a1 1 0 0 1 0 2z"/><path d="m20 51h-6a1 1 0 0 0 0 2h6a1 1 0 0 0 0-2z"/><path d="m25.07 14.89 1.26-2.19a3 3 0 0 0 .3-2.28 3 3 0 0 0 -.63-1.16l1.6-2.76a3 3 0 0 0 .3-2.28 3 3 0 0 0 -5.5-.72l-1.59 2.76a3 3 0 0 0 -3.14 1.44l-1.26 2.18a9 9 0 0 0 -8.41 9.18 12 12 0 0 0 -3 7.94v29a6 6 0 0 0 6 6h12a6 6 0 0 0 6-6v-29a11.9 11.9 0 0 0 -3-7.94 9.05 9.05 0 0 0 -.93-4.17zm-.94-10.39a1 1 0 0 1 1.37-.37 1 1 0 0 1 .47.61 1 1 0 0 1 -.1.76l-1.5 2.6-1.74-1zm-4.13 3.73a1 1 0 0 1 .76.1l3.46 2a1 1 0 0 1 .47.61 1 1 0 0 1 -.1.76l-.76 1.3a8.73 8.73 0 0 0 -5.19-3l.76-1.3a1 1 0 0 1 .6-.47zm-9.07 7.13a7 7 0 0 1 12.82 1.73 12 12 0 0 0 -13.52 0 6.54 6.54 0 0 1 .71-1.73zm16.07 40.64a4 4 0 0 1 -4 4h-12a4 4 0 0 1 -4-4v-29a10 10 0 0 1 20 0z"/><path d="m55 42.53v-33.53a7 7 0 0 0 -14 0v33.53a10.89 10.89 0 0 0 -4 8.47 11 11 0 0 0 22 0 10.89 10.89 0 0 0 -4-8.47zm-7 17.47a9 9 0 0 1 -9-9 8.92 8.92 0 0 1 3.6-7.19 1 1 0 0 0 .4-.81v-34a5 5 0 0 1 10 0v34a1 1 0 0 0 .4.8 8.92 8.92 0 0 1 3.6 7.2 9 9 0 0 1 -9 9z"/><path d="m52.2 45.41-1.2-.9v-35.51a3 3 0 0 0 -6 0v35.51l-1.2.9a7 7 0 1 0 8.4 0zm-4.2-37.41a1 1 0 0 1 1 1v6h-2v-6a1 1 0 0 1 1-1zm0 48a5 5 0 0 1 -5-5 5 5 0 0 1 2-4l1.59-1.2a1 1 0 0 0 .41-.8v-28h2v28a1 1 0 0 0 .4.8l1.6 1.2a5 5 0 0 1 2 4 5 5 0 0 1 -5 5z"/><path d="m34 13h4a1 1 0 0 0 0-2h-4a1 1 0 0 0 0 2z"/><path d="m34 17h4a1 1 0 0 0 0-2h-4a1 1 0 0 0 0 2z"/><path d="m34 21h4a1 1 0 0 0 0-2h-4a1 1 0 0 0 0 2z"/><path d="m34 25h4a1 1 0 0 0 0-2h-4a1 1 0 0 0 0 2z"/><path d="m34 29h4a1 1 0 0 0 0-2h-4a1 1 0 0 0 0 2z"/><path d="m34 33h4a1 1 0 0 0 0-2h-4a1 1 0 0 0 0 2z"/><path d="m34 37h4a1 1 0 0 0 0-2h-4a1 1 0 0 0 0 2z"/><path d="m39 40a1 1 0 0 0 -1-1h-4a1 1 0 0 0 0 2h4a1 1 0 0 0 1-1z"/></g></svg>