<svg height="512" viewBox="0 0 64 64" width="512" xmlns="http://www.w3.org/2000/svg"><path d="m32 47a5 5 0 0 1 -5-5h-4a4 4 0 0 0 -4 4v3.09a6.64 6.64 0 0 1 1-.09 6 6 0 0 1 5.65 8h13.35v-10z" fill="#cff09e"/><path d="m28 53h9v4h-9z" fill="#79bd9a"/><path d="m49 53h5a4 4 0 0 1 4 4 0 0 0 0 1 0 0h-9a0 0 0 0 1 0 0v-4a0 0 0 0 1 0 0z" fill="#79bd9a"/><path d="m43 49a8 8 0 0 0 -8 8h4a4 4 0 0 1 8 0h4a8 8 0 0 0 -8-8z" fill="#a8dba8"/><path d="m21 45.05h-6a5 5 0 0 0 -5 5v7h4.35a6 6 0 1 1 11.3 0h4.15a10.2 10.2 0 0 0 .2-2 10 10 0 0 0 -9-10z" fill="#a8dba8"/><path d="m27 38h4v4h-4z" fill="#79bd9a"/><path d="m22 33.25v2.75a2 2 0 0 0 2 2h10a2 2 0 0 0 2-2v-1z" fill="#cff09e"/><path d="m21 59a6 6 0 0 1 -6-6 5.84 5.84 0 0 1 .23-1.63 6 6 0 1 0 10.54 5.26 6 6 0 0 1 -4.77 2.37z" fill="#cff09e"/><circle cx="20" cy="55" fill="#79bd9a" r="2"/><path d="m44 59a4 4 0 0 1 -4-4 4.17 4.17 0 0 1 .07-.71 4 4 0 1 0 6.86 3.42 4 4 0 0 1 -2.93 1.29z" fill="#cff09e"/><path d="m44 36-24-3v-6h18a6 6 0 0 1 6 6z" fill="#a8dba8"/><path d="m18 31a3 3 0 0 1 -3-3v-4h-2v5a4 4 0 0 0 4 4h3v-2z" fill="#cff09e"/><circle cx="31" cy="13" fill="#a8dba8" r="2"/><path d="m15 20a2 2 0 0 1 2-2h2v-7a8 8 0 0 0 -8-8v19a2 2 0 0 0 2 2h4a2 2 0 0 0 2-2h-2a2 2 0 0 1 -2-2z" fill="#a8dba8"/><path d="m18 18h-1a2 2 0 0 0 0 4h18a2 2 0 0 0 2-2h-17a2 2 0 0 1 -2-2z" fill="#cff09e"/><g fill="#3b8686"><path d="m20 52a3 3 0 1 0 3 3 3 3 0 0 0 -3-3zm0 4a1 1 0 1 1 1-1 1 1 0 0 1 -1 1z"/><circle cx="43" cy="57" r="1"/><path d="m54 52h-3.52a9 9 0 0 0 -7.48-4 8.81 8.81 0 0 0 -3 .53v-2.53a5 5 0 0 0 -5-5h-3v-2h2a3 3 0 0 0 3-2.87l6.89.86h.11a1 1 0 0 0 .66-.25 1 1 0 0 0 .34-.74v-3a7 7 0 0 0 -7-7h-18a1 1 0 0 0 -1 1v1h-1v-3.18a3 3 0 0 0 1.82-1.82h15.18a3 3 0 0 0 0-6h-3v-1.18a3 3 0 1 0 -2 0v1.18h-10v-6a9 9 0 0 0 -9-9 1 1 0 0 0 -1 1v19a3 3 0 0 0 2 2.82v4.18a5 5 0 0 0 5 5h2.94l1.06.13v1.87a3 3 0 0 0 3 3h2v2h-3a5 5 0 0 0 -4.56 3h-3.44a6 6 0 0 0 -6 6v7a1 1 0 0 0 1 1h3.69a7 7 0 0 0 12.62 0h11.79a5 5 0 0 0 9.8 0h10.1a1 1 0 0 0 1-1 5 5 0 0 0 -5-5zm-23-40a1 1 0 1 1 -1 1 1 1 0 0 1 1-1zm-10 16h17a5 5 0 0 1 5 5v1.87l-22-2.75zm15-8a1 1 0 0 1 -1 1h-18a1 1 0 0 1 0-2h18a1 1 0 0 1 1 1zm-24-15.93a7 7 0 0 1 6 6.93v6h-1a3 3 0 0 0 0 6h-4a1 1 0 0 1 -1-1zm2 24.93v-4h2v4a1 1 0 0 0 1 1h2v2h-2a3 3 0 0 1 -3-3zm9 7v-1.62l12 1.5v.12a1 1 0 0 1 -1 1h-10a1 1 0 0 1 -1-1zm5 3h2v2h-2zm-5 4h12a3 3 0 0 1 3 3v3.52a9.15 9.15 0 0 0 -2.48 2.48h-4.93a11 11 0 0 0 -9.17-7.91 1 1 0 0 0 -.42-.09h-.22a3 3 0 0 1 2.22-1zm11.06 13h-3.06c0-.33.05-.67.05-1s0-.67-.05-1h3.58a9 9 0 0 0 -.52 2zm-14.06 4a5 5 0 1 1 5-5 5 5 0 0 1 -5 5zm0-12a7 7 0 0 0 -7 7 6.63 6.63 0 0 0 .08 1h-2.08v-6a4 4 0 0 1 4-4h5.69.21a9 9 0 0 1 8.1 9 8.39 8.39 0 0 1 -.06 1h-2a6.63 6.63 0 0 0 .06-1 7 7 0 0 0 -7-7zm23 12a3 3 0 1 1 3-3 3 3 0 0 1 -3 3zm4.9-4a5 5 0 0 0 -9.8 0h-2a7 7 0 0 1 13.86 0zm4 0a9 9 0 0 0 -.47-2h2.57a3 3 0 0 1 2.83 2z"/></g></svg>