<svg height="512" viewBox="0 0 64 64" width="512" xmlns="http://www.w3.org/2000/svg"><path d="m43.2 20.01-.46.79.79.46z" fill="#a8dba8"/><path d="m37.75 21.45-9.68 3.94-4.5 6.38 9.77-2.62z" fill="#a8dba8"/><path d="m60.79 23.87a6 6 0 0 0 -7.34-4.25l-8.72 2.38.61.36-3.41 4.53 7.07-1.89a6 6 0 0 0 7.53 6.27 6 6 0 0 0 4.26-7.4zm-5.27 3.48a2 2 0 1 1 1.41-2.45 2 2 0 0 1 -1.41 2.45z" fill="#a8dba8"/><path d="m5 30h28v4h-28z" fill="#cff09e"/><path d="m8 22h22v4h-22z" fill="#a8dba8"/><path d="m8 38h22v4h-22z" fill="#a8dba8"/><path d="m8 55h22v4h-22z" fill="#cff09e"/><path d="m8 5h22v4h-22z" fill="#cff09e"/><path d="m22.68 48.5c3.92-2.39 12.32-8.5 12.32-16.5s-8.4-14.11-12.32-16.5c3.23-1.98 9.52-6.5 11.61-12.5h-4.29c-2.9 5.78-11 10-11 10s-8.07-4.22-11-10h-4.29c2.09 6 8.38 10.52 11.61 12.5-3.92 2.39-12.32 8.5-12.32 16.5s8.4 14.11 12.32 16.5c-3.23 1.98-9.52 6.5-11.61 12.5h4.29c2.9-5.78 11-10 11-10s8.07 4.22 11 10h4.32c-2.12-6-8.41-10.52-11.64-12.5zm-15.68-16.5c0-7.73 12-14 12-14s12 6.27 12 14-12 14-12 14-12-6.27-12-14z" fill="#79bd9a"/><ellipse cx="44.54" cy="8.03" fill="none" rx="2" ry="2.02"/><path d="m36.77 25.65 6.68-11.65a5.9 5.9 0 0 1 -2.88-1.41 6.14 6.14 0 0 1 -1.57-6.96 6 6 0 0 1 1.88-2.41 5.92 5.92 0 0 0 -3.53 2.78 6 6 0 0 0 4.1 9l-13.17 23 7.33-2.72 3.39-4.51a3.48 3.48 0 0 1 -2.23-5.12z" fill="#cff09e"/><g fill="#3b8686"><path d="m19.46 50.11a1 1 0 0 0 -.92 0c-.34.18-8.39 4.44-11.4 10.44a1 1 0 1 0 1.78.9 12.64 12.64 0 0 1 .87-1.45h18.42a12.64 12.64 0 0 1 .87 1.45 1 1 0 0 0 .92.55.91.91 0 0 0 .45-.11 1 1 0 0 0 .44-1.34c-3.04-6-11.09-10.26-11.43-10.44zm-.46 2c.58.33 1.66 1 2.91 1.86h-5.82c1.25-.85 2.33-1.5 2.91-1.83zm-7.6 5.89a26.24 26.24 0 0 1 2.1-2h11a26.24 26.24 0 0 1 2.1 2z"/><path d="m15.84 49.35a1 1 0 0 0 0-1.7c-3.56-2.18-11.84-8.06-11.84-15.65s8.28-13.47 11.84-15.65a1 1 0 0 0 0-1.7c-2.68-1.65-9.15-6.1-11.19-11.98a1 1 0 0 0 -1.27-.61 1 1 0 0 0 -.62 1.27c1.92 5.53 7.07 9.76 10.7 12.17-4.26 2.84-11.46 8.79-11.46 16.5s7.2 13.66 11.46 16.5c-3.63 2.41-8.78 6.64-10.7 12.17a1 1 0 0 0 .62 1.27 1 1 0 0 0 .33.06 1 1 0 0 0 .94-.67c2.04-5.88 8.51-10.33 11.19-11.98z"/><path d="m18.54 13.89a1 1 0 0 0 .92 0c.34-.18 8.39-4.44 11.4-10.44a1 1 0 1 0 -1.78-.9 12.64 12.64 0 0 1 -.87 1.45h-18.42a12.64 12.64 0 0 1 -.87-1.45 1 1 0 1 0 -1.78.9c3.01 6 11.06 10.26 11.4 10.44zm.46-2c-.58-.33-1.66-1-2.91-1.86h5.82c-1.25.85-2.33 1.5-2.91 1.83zm7.6-5.89a26.24 26.24 0 0 1 -2.1 2h-11a26.24 26.24 0 0 1 -2.1-2z"/><path d="m45.14 10.49a3 3 0 0 0 -1.14-4.1 3 3 0 0 0 -3 5.2 3 3 0 0 0 1.5.4 3 3 0 0 0 2.64-1.5zm-3.14-.63a1 1 0 0 1 -.46-.61 1 1 0 0 1 .1-.76 1 1 0 0 1 .65-.49.75.75 0 0 1 .26 0 1 1 0 0 1 .49.14 1 1 0 0 1 .37 1.36 1 1 0 0 1 -.61.47 1 1 0 0 1 -.8-.11z"/><path d="m61.76 23.61a7 7 0 0 0 -8.57-4.95l-8.13 2.18-1-.55 4.5-7.8a7 7 0 1 0 -9.56 2.56 5.88 5.88 0 0 0 .91.44l-3 5.22-4.55 1.84a33.6 33.6 0 0 0 -7.85-7c3.63-2.41 8.78-6.64 10.7-12.17a1 1 0 0 0 -1.89-.66c-2 5.88-8.51 10.34-11.19 12a1 1 0 0 0 0 1.7c3.13 1.92 8.62 5.88 10.86 11.14l-1.31 2.27c-1.84-7.13-11.78-12.4-12.25-12.65a1 1 0 0 0 -.92 0c-.51.2-12.51 6.58-12.51 14.82s12 14.62 12.54 14.89a1 1 0 0 0 .92 0c.29-.15 6.83-3.62 10.35-8.68l2.91-1.08c-2.49 5.15-8.07 9-10.56 10.52a1 1 0 0 0 0 1.7c2.68 1.64 9.15 6.1 11.19 12a1 1 0 0 0 .94.67 1 1 0 0 0 .33-.06 1 1 0 0 0 .62-1.27c-1.92-5.53-7.07-9.76-10.7-12.17 3.68-2.45 8.84-6.72 10.72-12.3l.74-.22a1 1 0 0 0 .45-.34l5.93-7.83 5.72-1.53a6.52 6.52 0 0 0 .19 1 7 7 0 0 0 6.71 5.12 7.11 7.11 0 0 0 1.82-.24 7 7 0 0 0 4.95-8.57zm-28.2.62 1.75-.7-1.08 1.86c-.23-.39-.43-.78-.67-1.16zm-6.03 12.77h-17.75a11.92 11.92 0 0 1 -1.11-2h20zm-17.74-10h18.43a11.92 11.92 0 0 1 1.11 2h-20.66a11.31 11.31 0 0 1 1.12-2zm20.12 4a6.64 6.64 0 0 1 .09 1 6.35 6.35 0 0 1 -.06.83l-.1.17h-21.75a5.6 5.6 0 0 1 0-2zm-10.91-11.86c.58.33 1.66 1 2.92 1.86h-5.84c1.26-.88 2.34-1.53 2.92-1.86zm-5.51 3.86h11a26.24 26.24 0 0 1 2.1 2h-15.19a24.55 24.55 0 0 1 2.09-2zm5.51 21.86c-.58-.33-1.66-1-2.92-1.86h5.84c-1.26.88-2.34 1.53-2.92 1.86zm5.51-3.86h-11a26.24 26.24 0 0 1 -2.1-2h15.19a24.55 24.55 0 0 1 -2.09 2zm10.49-6.83-4.47 1.64 1.24-2.13 10.55-18.29a1 1 0 0 0 0-.92 1 1 0 0 0 -.73-.57 4.9 4.9 0 0 1 -1.59-.58 5 5 0 1 1 5-8.66 5 5 0 0 1 1.83 6.83l-5 8.66a1.05 1.05 0 0 0 -.1.76 1 1 0 0 0 .47.61l1.62.93zm24.34-6.25a5 5 0 0 1 -9.16-1.21 4.71 4.71 0 0 1 -.18-1.71 1 1 0 0 0 -.36-.85 1 1 0 0 0 -.9-.2l-4.46 1.2 1.84-2.42c0-.05 0-.11.07-.16l7.49-2a5 5 0 0 1 5.63 7.33z"/><path d="m56.5 22.82a3 3 0 1 0 -.72 5.5 3 3 0 0 0 .72-5.5zm-.64 3.1a1 1 0 0 1 -.6.47 1 1 0 0 1 -.52-1.94 1.15 1.15 0 0 1 .26 0 1 1 0 0 1 .5.13 1 1 0 0 1 .46.61 1 1 0 0 1 -.1.73z"/></g></svg>