<svg height="512" viewBox="0 0 64 64" width="512" xmlns="http://www.w3.org/2000/svg"><path d="m37 6a30 30 0 0 0 -29 30v.08a7.78 7.78 0 0 0 2.18 5.37 8.15 8.15 0 0 0 2.92.55h.9a8.06 8.06 0 0 0 8.07-8.73c-.07-.75-.07-1.5-.07-2.27a25 25 0 0 1 15-22.91z" fill="#a8dba8"/><path d="m37 8.09v-4c-.66-.09-1.33-.09-2-.09a30 30 0 0 0 -15 4l7.44 7.44a25 25 0 0 1 9.56-7.35z" fill="#79bd9a"/><path d="m10.53 16.65-.91-.4a3 3 0 0 0 -3.95 1.54l-2.42 5.5a3 3 0 0 0 1.54 3.95l.89.39a30 30 0 0 1 4.85-10.98z" fill="#79bd9a"/><path d="m36.8 9.12a19 19 0 0 0 -8.64 34.47 8.69 8.69 0 0 1 3.84 7.1v.31a10 10 0 0 0 10 10 16 16 0 0 0 16-16v-17a19 19 0 0 0 -21.2-18.88zm16.2 20.88a4 4 0 0 1 -4 4 2 2 0 0 1 -4 0v-6a2 2 0 0 1 4 0v-6h4z" fill="#cff09e"/><path d="m49 34a2 2 0 0 1 -4 0v-6a2 2 0 0 1 4 0v-6h1.52a13 13 0 0 0 -11.52-7 13.21 13.21 0 0 0 -1.53.09 13 13 0 0 0 -5.88 23.57 14.75 14.75 0 0 1 6.41 12 4.26 4.26 0 0 0 4.36 4.34 10 10 0 0 0 9.64-10v-12.38a4 4 0 0 1 -3 1.38z" fill="#a8dba8"/><path d="m46 41a6.41 6.41 0 0 0 -3.5-5.8 8 8 0 0 1 -3.18-11.59l-.32-.61a8 8 0 0 0 -3.5 15.2 6.41 6.41 0 0 1 3.5 5.8 5 5 0 0 0 9.76 1.45 5 5 0 0 1 -2.76-4.45z" fill="#79bd9a"/><path d="m45 29h-2.55a4 4 0 1 0 0 4h2.55z" fill="#cff09e"/><path d="m47 32v-6a2 2 0 0 0 -2 2v6a2 2 0 0 0 4 0 2 2 0 0 1 -2-2z" fill="#cff09e"/><path d="m51 28v-6h-2v12a4 4 0 0 0 4-4 2 2 0 0 1 -2-2z" fill="#cff09e"/><g fill="#3b8686"><circle cx="39" cy="31" r="1"/><path d="m53.46 14.2a3.56 3.56 0 0 0 -1.66-2.28 1.67 1.67 0 0 1 -.8-1.41v-1.87a3.64 3.64 0 0 0 -3.64-3.64h-9.36v-.93a1 1 0 0 0 -.93-1c-.79-.07-1.44-.07-2.07-.07a30.84 30.84 0 0 0 -15.35 4.08h-.08a31.24 31.24 0 0 0 -9.36 8.29l-.21-.03a4 4 0 0 0 -5.27 2.05l-2.39 5.49a4 4 0 0 0 2.05 5.28l.17.07a31.38 31.38 0 0 0 -.56 5.86 9 9 0 0 0 9.1 8.91h.9a9.14 9.14 0 0 0 8-4.6 19.81 19.81 0 0 0 5.64 6 7.71 7.71 0 0 1 3.36 6.29v.31a11 11 0 0 0 11 11 17 17 0 0 0 17-17v-17a20 20 0 0 0 -5.54-13.8zm-6.1-7.2a1.63 1.63 0 0 1 1.64 1.64v1.87.17a19.79 19.79 0 0 0 -11-2.63v-1.05zm-11.36-2v2.45a27.11 27.11 0 0 0 -2.42 1.3 19.75 19.75 0 0 0 -7.46 4l-4.45-4.49a28.81 28.81 0 0 1 13.33-3.26zm-31.83 18.69 2.41-5.49a2 2 0 0 1 2.42-1.09 31.14 31.14 0 0 0 -4 9.11 2 2 0 0 1 -.83-2.53zm9.83 17.31h-.9a7 7 0 0 1 -7.1-7 29 29 0 0 1 13.86-24.72l4.8 4.79a19.88 19.88 0 0 0 -3.9 22.07 7.12 7.12 0 0 1 -6.76 4.86zm43 4a15 15 0 0 1 -15 15 9 9 0 0 1 -9-9v-.31a9.73 9.73 0 0 0 -4.27-7.92 18 18 0 0 1 -2-27.92h.07s0 0 0-.05a18 18 0 0 1 24.2-.22c.2.17.37.37.56.55a1.64 1.64 0 0 1 -.83 1.34 3.61 3.61 0 0 0 -1.73 3.09v1.44a1 1 0 0 0 -1 1v3.18a3 3 0 0 0 -4 2.82h-1a5 5 0 1 0 0 6h1a3 3 0 0 0 5.84.91 5 5 0 0 0 4.16-4.91v-8a1 1 0 0 0 -1-1h-2v-1.44a1.66 1.66 0 0 1 .84-1.43 3.67 3.67 0 0 0 1.25-1.29 18 18 0 0 1 3.91 11.16zm-13-13h-1.55a1 1 0 0 0 -.87.5 3 3 0 0 1 -2.58 1.5 3 3 0 0 1 0-6 3 3 0 0 1 2.58 1.5 1 1 0 0 0 .87.5h1.55zm2-4a1 1 0 0 1 2 0v6a1 1 0 0 1 -2 0zm4-5h2v7a3 3 0 0 1 -2 2.83z"/><path d="m26 28a13 13 0 0 1 15.48-12.76 1 1 0 1 0 .38-2 15 15 0 0 0 -13.47 25.37 1 1 0 0 0 1.42 0 1 1 0 0 0 0-1.42 12.89 12.89 0 0 1 -3.81-9.19z"/><path d="m49 41a1 1 0 0 0 -1 1v2a4 4 0 0 1 -8 0 7.43 7.43 0 0 0 -4.06-6.7 7 7 0 0 1 3.06-13.3 1 1 0 0 0 0-2 9 9 0 0 0 -3.93 17.1 5.41 5.41 0 0 1 2.93 4.9 6 6 0 0 0 12 0v-2a1 1 0 0 0 -1-1z"/></g></svg>