<svg height="512" viewBox="0 0 64 64" width="512" xmlns="http://www.w3.org/2000/svg"><path d="m11 29v-12h-6a2 2 0 0 0 -2 2v32a2 2 0 0 0 2 2h46v-8h-24a16 16 0 0 1 -16-16z" fill="#cff09e"/><path d="m37.18 23.77.84-.84a3.56 3.56 0 0 1 5 0 3.56 3.56 0 0 1 0 5.05l-5.89 5.9-5.85-5.88a3.56 3.56 0 0 1 0-5.05 3.56 3.56 0 0 1 5 0z" fill="#a8dba8"/><path d="m44 42h-3v-3h-4v3h-3v4h3v3h4v-3h3z" fill="#a8dba8"/><path d="m51 17h6a2 2 0 0 1 2 2v32a2 2 0 0 1 -2 2h-6a0 0 0 0 1 0 0v-36a0 0 0 0 1 0 0z" fill="#79bd9a"/><path d="m18 7v6h4v-6h14v6h4v-6a4 4 0 0 0 -4-4h-14a4 4 0 0 0 -4 4z" fill="#79bd9a"/><path d="m14 53h4v4h-4z" fill="#79bd9a"/><path d="m27 53h4v4h-4z" fill="#79bd9a"/><path d="m14 13h32a2 2 0 0 1 2 2v2a0 0 0 0 1 0 0h-36a0 0 0 0 1 0 0v-2a2 2 0 0 1 2-2z" fill="#79bd9a"/><g fill="#3b8686"><path d="m28 28h2a5.13 5.13 0 0 0 .56.69l5.9 5.9a1 1 0 0 0 .71.29 1 1 0 0 0 .7-.29l5.9-5.9a4.56 4.56 0 0 0 1.07-1.69h1.16a1 1 0 0 0 0-2h-.92a4.56 4.56 0 0 0 -7.77-2.78l-.13.13-.18-.13a4.58 4.58 0 0 0 -7.81 3.23 3.31 3.31 0 0 0 .06.55h-1.25a1 1 0 0 0 0 2zm14.37-.73-5.19 5.19-5-5 1.53-1 2.46 4.1a1 1 0 0 0 .83.44 1 1 0 0 0 .8-.4l2.7-3.6h2.09a2.88 2.88 0 0 1 -.22.27zm-10.37-3.64a2.56 2.56 0 0 1 1.82-.75 2.6 2.6 0 0 1 1.82.75l.84.85a1 1 0 0 0 1.41 0l.85-.85a2.57 2.57 0 0 1 4.34 1.37h-3.08a1 1 0 0 0 -.8.4l-2.11 2.81-2.23-3.72a1 1 0 0 0 -1.41-.32l-2.2 1.46c0-.06 0-.12 0-.18a2.57 2.57 0 0 1 .75-1.82z"/><path d="m44 41h-2v-2a1 1 0 0 0 -1-1h-4a1 1 0 0 0 -1 1v2h-2a1 1 0 0 0 -1 1v4a1 1 0 0 0 1 1h2v2a1 1 0 0 0 1 1h4a1 1 0 0 0 1-1v-2h2a1 1 0 0 0 1-1v-4a1 1 0 0 0 -1-1zm-1 4h-2a1 1 0 0 0 -1 1v2h-2v-2a1 1 0 0 0 -1-1h-2v-2h2a1 1 0 0 0 1-1v-2h2v2a1 1 0 0 0 1 1h2z"/><path d="m9 32h4a1 1 0 0 0 1-1v-8a1 1 0 0 0 -1-1h-4a1 1 0 0 0 -1 1v8a1 1 0 0 0 1 1zm3-2h-2v-2h2zm-2-6h2v2h-2z"/><path d="m17 30a1 1 0 0 0 0 2h4a1 1 0 0 0 1-1v-4a1 1 0 0 0 -1-1h-3v-2h3a1 1 0 0 0 0-2h-4a1 1 0 0 0 -1 1v4a1 1 0 0 0 1 1h3v2z"/><path d="m15 48a1 1 0 0 0 .92-.63l2.85-7.13 2.25 9a1 1 0 0 0 .98.76 1 1 0 0 0 .95-.68l1.77-5.32h3.28a1 1 0 0 0 0-2h-4a1 1 0 0 0 -.95.68l-.91 2.75-2.14-8.67a1 1 0 0 0 -1.9-.13l-3.1 7.76-2.05-4.78a1 1 0 0 0 -1.81-.06l-1.76 3.45h-2.38a1 1 0 0 0 0 2h3a1 1 0 0 0 .89-.55l1-2.07 2.15 5a1 1 0 0 0 .96.62z"/><path d="m57 16h-8v-1a3 3 0 0 0 -3-3h-5v-5a5 5 0 0 0 -5-5h-14a5 5 0 0 0 -5 5v5h-3a3 3 0 0 0 -3 3v1h-6a3 3 0 0 0 -3 3v32a3 3 0 0 0 3 3h8v3a1 1 0 0 0 1 1h1v1a1 1 0 0 1 -1 1h-11a1 1 0 0 0 0 2h11a3 3 0 0 0 3-3v-1h1a1 1 0 0 0 1-1v-3h7v3a1 1 0 0 0 1 1h1v3a1 1 0 0 0 2 0v-3h1a1 1 0 0 0 1-1v-3h25a3 3 0 0 0 3-3v-32a3 3 0 0 0 -3-3zm-38-9a3 3 0 0 1 3-3h14a3 3 0 0 1 3 3v5h-2v-5a1 1 0 0 0 -1-1h-14a1 1 0 0 0 -1 1v5h-2zm4 5v-4h12v4zm-10 3a1 1 0 0 1 1-1h32a1 1 0 0 1 1 1v1h-34zm-9 36v-32a1 1 0 0 1 1-1h45v34h-45a1 1 0 0 1 -1-1zm13 5h-2v-2h2zm13 0h-2v-2h2zm28-5a1 1 0 0 1 -1 1h-5v-34h5a1 1 0 0 1 1 1z"/><circle cx="55" cy="22" r="1"/><circle cx="55" cy="26" r="1"/><circle cx="55" cy="30" r="1"/><path d="m55 40a1 1 0 0 0 -1 1v6a1 1 0 0 0 2 0v-6a1 1 0 0 0 -1-1z"/></g></svg>