<svg height="512" viewBox="0 0 64 64" width="512" xmlns="http://www.w3.org/2000/svg"><path d="m35 28v-1h-6v22h32v-5h-10a16 16 0 0 1 -16-16z" fill="#cff09e"/><path d="m29 49h32v12h-32z" fill="#a8dba8"/><path d="m42 3h-20a2 2 0 0 0 -2 2v14a2 2 0 0 0 2 2h10.69l3.31 9 3.54-9h2.46a2 2 0 0 0 2-2v-14a2 2 0 0 0 -2-2z" fill="#79bd9a"/><path d="m37 10h-3v-3h-4v3h-3v4h3v3h4v-3h3z" fill="#a8dba8"/><path d="m16.67 50h-2.34a9.33 9.33 0 0 1 -9.33-9.33v-9.34a9.43 9.43 0 0 1 .71-3.57 9.31 9.31 0 0 0 -2.71 6.57v9.34a9.33 9.33 0 0 0 9.33 9.33h2.34a2.33 2.33 0 0 0 2.33-2.33v-.67z" fill="#cff09e"/><g fill="#3b8686"><path d="m61 26h-22.35l1.57-4h1.78a3 3 0 0 0 3-3v-14a3 3 0 0 0 -3-3h-20a3 3 0 0 0 -3 3v14a3 3 0 0 0 3 3h10l1.47 4h-4.47a1 1 0 0 0 -1 1v32h-8.18a3 3 0 1 0 -5.82-1 3 3 0 0 0 .14.86 3 3 0 0 1 -2.14-2.86v-2h.33 2.34a3.34 3.34 0 0 0 3.33-3.33v-2.34a3.34 3.34 0 0 0 -3.33-3.33h-2.34a1.34 1.34 0 0 1 -1.33-1.33v-9.34a1.34 1.34 0 0 1 1.33-1.33h2.34a3.34 3.34 0 0 0 3.33-3.33v-2.34a3.34 3.34 0 0 0 -3.33-3.33h-2.34a10.35 10.35 0 0 0 -10.33 10.33v9.34a10.33 10.33 0 0 0 8 10v2.33a5 5 0 0 0 5 5h13a1 1 0 0 0 1 1h32a1 1 0 0 0 1-1v-34a1 1 0 0 0 -1-1zm-57 17.67v-9.34a8.34 8.34 0 0 1 8.33-8.33h2.34a1.34 1.34 0 0 1 1.33 1.33v2.34a1.34 1.34 0 0 1 -1.33 1.33h-2.34a3.34 3.34 0 0 0 -3.33 3.33v9.34a3.34 3.34 0 0 0 3.33 3.33h2.34a1.34 1.34 0 0 1 1.33 1.33v2.34a1.34 1.34 0 0 1 -1.33 1.33h-2.34a8.34 8.34 0 0 1 -8.33-8.33zm13 13.33a1 1 0 1 1 -1 1 1 1 0 0 1 1-1zm29-1v-2h2v2zm-4 0v-2h2v2zm-4 0v-2h2v2zm-2-6v2h-2v-2zm4 0v2h-2v-2zm4 0v2h-2v-2zm4 0v2h-2v-2zm4 0v2h-2v-2zm4 0v2h-2v-2zm4 0v2h-2v-2zm-28 2h-2v-2h2zm-2 2h2v2h-2zm4 0h2v2h-2zm16 0h2v2h-2zm4 0h2v2h-2zm4 0h2v2h-2zm-36-34a1 1 0 0 1 -1-1v-14a1 1 0 0 1 1-1h20a1 1 0 0 1 1 1v14a1 1 0 0 1 -1 1h-2.46a1 1 0 0 0 -.93.63l-2.61 6.56-2.4-6.53a1 1 0 0 0 -.94-.66zm8 8h4.2l.86 2.34a1 1 0 0 0 .94.66 1 1 0 0 0 .93-.63l.93-2.37h22.14v20h-30zm0 30h2v2h-2zm4 0h2v2h-2zm4 0h14v2h-14zm16 0h2v2h-2zm6 2h-2v-2h2z"/><path d="m44.06 42.35a1 1 0 0 0 1.88 0l3-8a1 1 0 0 0 -1.88-.7l-2.06 5.5-2.06-5.5a1 1 0 1 0 -1.88.7z"/><path d="m52 43a1 1 0 0 0 1-1v-3h1a1 1 0 0 1 1 1v2a1 1 0 0 0 2 0v-2a3 3 0 0 0 -.78-2 3 3 0 0 0 .78-2 3 3 0 0 0 -3-3h-2a1 1 0 0 0 -1 1v8a1 1 0 0 0 1 1zm1-8h1a1 1 0 0 1 0 2h-1z"/><path d="m34 41a1 1 0 0 0 0 2h4a1 1 0 0 0 0-2h-1v-6h1a1 1 0 0 0 0-2h-4a1 1 0 0 0 0 2h1v6z"/><path d="m18.54 44a1 1 0 0 0 .7.29 1 1 0 0 0 .76-.29 7 7 0 0 0 0-9.9 1 1 0 1 0 -1.41 1.41 5 5 0 0 1 0 7.08 1 1 0 0 0 -.05 1.41z"/><path d="m15.71 41.12a1 1 0 0 0 1.41 0 3 3 0 0 0 0-4.24 1 1 0 1 0 -1.41 1.41 1 1 0 0 1 0 1.42 1 1 0 0 0 0 1.41z"/><path d="m21.36 45.36a1 1 0 0 0 0 1.42 1 1 0 0 0 .71.29 1 1 0 0 0 .71-.29 11 11 0 0 0 0-15.56 1 1 0 0 0 -1.42 1.42 9 9 0 0 1 0 12.72z"/><path d="m35 17v-2h2a1 1 0 0 0 1-1v-4a1 1 0 0 0 -1-1h-2v-2a1 1 0 0 0 -1-1h-4a1 1 0 0 0 -1 1v2h-2a1 1 0 0 0 -1 1v4a1 1 0 0 0 1 1h2v2a1 1 0 0 0 1 1h4a1 1 0 0 0 1-1zm-2-3v2h-2v-2a1 1 0 0 0 -1-1h-2v-2h2a1 1 0 0 0 1-1v-2h2v2a1 1 0 0 0 1 1h2v2h-2a1 1 0 0 0 -1 1z"/></g></svg>