<svg height="512" viewBox="0 0 64 64" width="512" xmlns="http://www.w3.org/2000/svg"><path d="m30 3v16h31v-16zm26 10h-2a5 5 0 0 1 -5-5h5a2 2 0 0 1 2 2z" fill="#a8dba8"/><path d="m12 29h-7v32h6.11l-1.17-2.63a10.73 10.73 0 0 1 0-8.74l.12-.26a10.73 10.73 0 0 0 0-8.74 10.75 10.75 0 0 1 .21-9.17 10 10 0 0 1 1.73-2.46z" fill="#cff09e"/><path d="m15 17a12 12 0 0 0 -10 5.37v22.37a16 16 0 0 0 4.78 5.32c.05-.14.1-.29.16-.43l.12-.26a10.73 10.73 0 0 0 0-8.74 10.75 10.75 0 0 1 .21-9.17 9.86 9.86 0 0 1 5.36-4.82l1.1-.41a9.84 9.84 0 0 1 6.58-.13l3.55 1.19a12 12 0 0 0 -11.86-10.29z" fill="#cff09e"/><path d="m23 50a16 16 0 0 1 -16-16v-8a11.9 11.9 0 0 1 3-7.88 12 12 0 0 0 -7 10.88v8a16 16 0 0 0 16 16 8 8 0 0 0 6.56-3.42 8 8 0 0 1 -2.56.42z" fill="#cff09e"/><path d="m45 43h6v6h-6z" fill="#a8dba8"/><path d="m42 19h8v4h-8z" fill="#79bd9a"/><circle cx="21" cy="30" fill="#79bd9a" r="2"/><path d="m19 53a16 16 0 0 1 -16-16v13.6a15.93 15.93 0 0 0 11 4.4 8 8 0 0 0 4-1.08v-.92z" fill="#cff09e"/><path d="m13 12a14 14 0 0 0 -10 4.21v44.79h7l-2.06-4.63a10.73 10.73 0 0 1 0-8.74l.12-.26a10.73 10.73 0 0 0 0-8.74 10.75 10.75 0 0 1 .21-9.17 9.86 9.86 0 0 1 5.36-4.82l1.1-.41a9.84 9.84 0 0 1 6.58-.13l5.69 1.9a14 14 0 0 0 -14-14z" fill="#79bd9a"/><path d="m55 46a2 2 0 0 1 -2-2h-2v4h8a2 2 0 0 0 2-2z" fill="#cff09e"/><path d="m44 44.17v.47a2 2 0 0 1 -2.33 2l-2.67-.47v.83l6 1v-4z" fill="#cff09e"/><circle cx="36" cy="11" fill="#cff09e" r="2"/><path d="m47 7v8h10v-8zm9 6h-2a5 5 0 0 1 -5-5h5a2 2 0 0 1 2 2z" fill="#cff09e"/><g fill="#3b8686"><path d="m51 50h-6a1 1 0 0 1 -1-1v-6a1 1 0 0 1 1-1h6a1 1 0 0 1 1 1v6a1 1 0 0 1 -1 1zm-5-2h4v-4h-4z"/><path d="m45 49h-.16l-6-1a1 1 0 0 1 -.84-1v-2a1 1 0 0 1 .84-1l6-1a1 1 0 0 1 .81.23 1 1 0 0 1 .35.77v4a1 1 0 0 1 -.35.76 1 1 0 0 1 -.65.24zm-5-2.85 4 .67v-1.64l-4 .67z"/><path d="m35 47h-12a1 1 0 0 1 0-2h12a1 1 0 0 1 0 2z"/><path d="m36 44a1 1 0 0 1 -.71-.29l-1-1a1 1 0 0 1 1.42-1.42l1 1a1 1 0 0 1 0 1.42 1 1 0 0 1 -.71.29z"/><path d="m35 51a1 1 0 0 1 -.71-.29 1 1 0 0 1 0-1.42l1-1a1 1 0 0 1 1.42 1.42l-1 1a1 1 0 0 1 -.71.29z"/><path d="m59 49h-8a1 1 0 0 1 -1-1v-4a1 1 0 0 1 1-1h8a3 3 0 0 1 0 6zm-7-2h7a1 1 0 0 0 0-2h-7z"/><path d="m61 20h-31a1 1 0 0 1 -1-1v-16a1 1 0 0 1 1-1h31a1 1 0 0 1 1 1v16a1 1 0 0 1 -1 1zm-30-2h29v-14h-29z"/><path d="m58 16h-10a1 1 0 0 1 -1-1v-8a1 1 0 0 1 1-1h10a1 1 0 0 1 1 1v8a1 1 0 0 1 -1 1zm-9-2h8v-6h-8z"/><path d="m55 45a1 1 0 0 1 -1-1v-5a4 4 0 0 1 4-4 2 2 0 0 0 0-4h-5a8 8 0 0 1 -8-8 1 1 0 0 1 2 0 6 6 0 0 0 6 6h5a4 4 0 0 1 0 8 2 2 0 0 0 -2 2v5a1 1 0 0 1 -1 1z"/><path d="m50 24h-8a1 1 0 0 1 -1-1v-4a1 1 0 0 1 1-1h8a1 1 0 0 1 1 1v4a1 1 0 0 1 -1 1zm-7-2h6v-2h-6z"/><path d="m36 14a3 3 0 1 1 3-3 3 3 0 0 1 -3 3zm0-4a1 1 0 1 0 1 1 1 1 0 0 0 -1-1z"/><circle cx="43" cy="9" r="1"/><circle cx="43" cy="13" r="1"/><path d="m21 33a3 3 0 1 1 3-3 3 3 0 0 1 -3 3zm0-4a1 1 0 1 0 1 1 1 1 0 0 0 -1-1z"/><path d="m10 62a1 1 0 0 1 -.91-.59l-2.09-4.64a11.74 11.74 0 0 1 0-9.54l.14-.23a9.79 9.79 0 0 0 0-7.92 11.69 11.69 0 0 1 .22-10 10.86 10.86 0 0 1 5.91-5.32l1.1-.41a10.87 10.87 0 0 1 7.25-.13l4.29 1.43a13 13 0 0 0 -22.2-7.74 1 1 0 1 1 -1.42-1.4 14.86 14.86 0 0 1 10.71-4.51 15 15 0 0 1 15 15 1 1 0 0 1 -.42.81 1 1 0 0 1 -.9.14l-5.68-1.9a8.91 8.91 0 0 0 -5.92.11l-1.1.42a8.82 8.82 0 0 0 -4.82 4.33 9.77 9.77 0 0 0 -.16 8.32 11.74 11.74 0 0 1 0 9.54l-.14.23a9.79 9.79 0 0 0 0 7.92l2.06 4.63a1 1 0 0 1 -.5 1.32 1 1 0 0 1 -.42.13z"/><path d="m18 62a1 1 0 0 1 -1-1v-8a1 1 0 0 1 1.06-1h.24.7a7 7 0 0 0 7-7v-4a1 1 0 0 1 .63-.93l3.55-1.42a15.52 15.52 0 0 1 -4.18-9.59v-.15a16.91 16.91 0 0 0 -.2-5.14 1 1 0 1 1 1.95-.43 18.72 18.72 0 0 1 .25 5.66 13.48 13.48 0 0 0 4.54 9.13l.12.11a1 1 0 0 1 -.29 1.68l-4.37 1.76v3.32a9 9 0 0 1 -9 9v7a1 1 0 0 1 -1 1z"/><path d="m6 25a1 1 0 0 1 -.58-1.81l.44-.32a21.53 21.53 0 0 1 15.26-3.87 1 1 0 0 1 -.24 2 19.59 19.59 0 0 0 -13.88 3.5l-.44.31a1 1 0 0 1 -.56.19z"/><path d="m4 48.37a1 1 0 0 1 -.41-.09 1 1 0 0 1 -.5-1.28 9.83 9.83 0 0 0 0-7.92 1 1 0 1 1 1.82-.81 11.74 11.74 0 0 1 0 9.54 1 1 0 0 1 -.91.56z"/><path d="m5 21a1 1 0 0 1 -.64-.23 1 1 0 0 1 -.13-1.41 13.79 13.79 0 0 1 8.77-4.84 1 1 0 0 1 1.13.85 1 1 0 0 1 -.86 1.13 11.77 11.77 0 0 0 -7.46 4.14 1 1 0 0 1 -.81.36z"/></g></svg>