<svg height="512" viewBox="0 0 64 64" width="512" xmlns="http://www.w3.org/2000/svg"><path d="m44 29.75a9 9 0 0 1 -3.34 5l-.09.33a6 6 0 1 0 3-11.62l-.09.34a9 9 0 0 1 .52 5.95z" fill="#cff09e"/><path d="m55 21h6v4h-6z" fill="#a8dba8"/><path d="m38.49 39.4a10 10 0 1 1 -13 0 69.28 69.28 0 0 0 -22.49 7.08v14.52h58v-14.52a69.28 69.28 0 0 0 -22.51-7.08z" fill="#cff09e"/><path d="m32 37a10 10 0 1 1 -10 10 10 10 0 0 1 10-10c-12.15 0-22 12-22 12s9.85 12 22 12 22-12 22-12-9.85-12-22-12z" fill="#a8dba8"/><path d="m33 54a10 10 0 0 1 -10-10 9.8 9.8 0 0 1 .15-1.64 10 10 0 1 0 18.7 6.28 10 10 0 0 1 -8.85 5.36z" fill="#cff09e"/><g fill="#79bd9a"><circle cx="32" cy="42" r="5"/><path d="m32 56c-6.88 0-15.58-3.85-21.84-7.18l-.16.18s9.85 12 22 12 22-12 22-12l-.16-.18c-6.26 3.33-14.96 7.18-21.84 7.18z"/><path d="m36 22h-8l-1-5h10z"/></g><path d="m12 11h30a0 0 0 0 1 0 0v4a2 2 0 0 1 -2 2h-26a2 2 0 0 1 -2-2v-4a0 0 0 0 1 0 0z" fill="#a8dba8"/><path d="m3 3h44a0 0 0 0 1 0 0v6a2 2 0 0 1 -2 2h-42a0 0 0 0 1 0 0v-8a0 0 0 0 1 0 0z" fill="#a8dba8"/><path d="m61 20h-6a1 1 0 0 0 -1 1v1h-4a1 1 0 0 0 -.84.46l-1.58 2.46a7 7 0 0 0 -3.74-2.45 1 1 0 0 0 -1.22.72l-.09.34a1.06 1.06 0 0 0 .06.66 7.91 7.91 0 0 1 .47 5.31 7.86 7.86 0 0 1 -3 4.42 1 1 0 0 0 -.37.56l-.09.33a1 1 0 0 0 .75 1.19 6.9 6.9 0 0 0 5.31-.75 7 7 0 0 0 3-8.38l1.89-2.87h3.45v1a1 1 0 0 0 1 1h6a1 1 0 0 0 1-1v-4a1 1 0 0 0 -1-1zm-14.06 10.5a5 5 0 0 1 -2.3 3.06 5.18 5.18 0 0 1 -1.91.66 10 10 0 0 0 2.31-9 4.89 4.89 0 0 1 1.36 1.5 5 5 0 0 1 .54 3.78zm13.06-6.5h-4v-2h4z" fill="#3b8686"/><path d="m61.45 45.59a73.62 73.62 0 0 0 -17.81-6.35 28.75 28.75 0 0 0 -5.86-2.42l-2.86-13.82h1.08a1 1 0 0 0 1-.8l.84-4.2h2.16a3 3 0 0 0 3-3v-3h2a3 3 0 0 0 3-3v-6a1 1 0 0 0 -1-1h-44a1 1 0 0 0 0 2h43v5a1 1 0 0 1 -1 1h-42a1 1 0 0 0 0 2h8v3a3 3 0 0 0 3 3h12.18l.82 4.2a1 1 0 0 0 1 .8h.74l-2.54 13.83a27.5 27.5 0 0 0 -5.84 2.42 73.16 73.16 0 0 0 -17.81 6.34 1 1 0 0 0 -.44 1.34 1 1 0 0 0 .89.55 1 1 0 0 0 .45-.1 75 75 0 0 1 11.81-4.76 40.77 40.77 0 0 0 -6 5.75 1 1 0 0 0 0 1.26c.38.51 10.26 12.37 22.74 12.37s22.36-11.86 22.77-12.37a1 1 0 0 0 0-1.26 40.77 40.77 0 0 0 -6-5.75 75 75 0 0 1 11.81 4.76 1 1 0 0 0 .45.1 1 1 0 0 0 .89-.55 1 1 0 0 0 -.47-1.34zm-24.33 8.8a24.77 24.77 0 0 1 -5.12.61 24.69 24.69 0 0 1 -5.12-.61 9 9 0 0 1 -.53-14.39 6 6 0 1 0 11.3 0 9 9 0 0 1 -.53 14.38zm-6.12-16.25v.86a1 1 0 0 0 2 0v-.86a4 4 0 0 1 2.44 1.86 4 4 0 0 1 -6.88 0 4 4 0 0 1 2.44-1.86zm1 5.86a6 6 0 0 0 4-1.49 4 4 0 0 1 -7.9 0 6 6 0 0 0 3.9 1.49zm-19-29v-3h28v3a1 1 0 0 1 -1 1h-26a1 1 0 0 1 -1-1zm22.78 3-.6 3h-6.36l-.6-3zm-5 5h2.1l2.76 13.33a20.75 20.75 0 0 0 -2.64-.33v-4a1 1 0 0 0 -2 0v4a21.54 21.54 0 0 0 -2.68.31zm-7.18 16.91a11 11 0 0 0 -.6 13.43 74.8 74.8 0 0 1 -11.24-4.81 39 39 0 0 1 11.84-8.62zm-9.09 12.19a59.26 59.26 0 0 0 11.73 4.19h.05a26.5 26.5 0 0 0 5.71.71 26.65 26.65 0 0 0 5.79-.72h.05a59.62 59.62 0 0 0 11.66-4.18c-3.84 3.4-10.28 7.9-17.5 7.9s-13.64-4.49-17.49-7.9zm37.72-3.57a74.8 74.8 0 0 1 -11.23 4.81 11 11 0 0 0 -.59-13.42 38.82 38.82 0 0 1 11.82 8.61z" fill="#3b8686"/></svg>