<svg height="512" viewBox="0 0 64 64" width="512" xmlns="http://www.w3.org/2000/svg"><path d="m38 55a2 2 0 0 1 -2 2h-8a2 2 0 0 1 -2-2h-2v4h16v-4z" fill="#cff09e"/><path d="m27 49h10v6h-10z" fill="#79bd9a"/><path d="m19 31v-4h-8v-6.89a2.07 2.07 0 0 0 -1.66-2.11 2 2 0 0 0 -2.34 2v7a4 4 0 0 0 4 4z" fill="#a8dba8"/><path d="m45 27v4h8v6.89a2.07 2.07 0 0 0 1.66 2.11 2 2 0 0 0 2.34-2v-7a4 4 0 0 0 -4-4z" fill="#a8dba8"/><path d="m28.35 22.52a3 3 0 0 1 -2.35-2.93v-8.24l-.65.13a3 3 0 0 0 -2.35 2.93v8.18a3 3 0 0 0 2.35 2.93 30.45 30.45 0 0 0 13.3 0 3 3 0 0 0 2.35-2.87 30.64 30.64 0 0 1 -12.65-.13z" fill="#a8dba8"/><path d="m37 47a13 13 0 0 1 -13-12l-1.7-21a14.74 14.74 0 0 1 2.06-8.81 14.75 14.75 0 0 0 -7.06 13.81l1.7 21a13 13 0 0 0 24.33 5.29 12.9 12.9 0 0 1 -6.33 1.71z" fill="#cff09e"/><path d="m52 46v-3h-3v12h12v-3h-3a6 6 0 0 1 -6-6z" fill="#cff09e"/><path d="m7 6h2v4h-2z" fill="#a8dba8"/><path d="m9 10h-2v4h4v-2a2 2 0 0 1 -2-2z" fill="#cff09e"/><path d="m37 34h-3v-3h-4v3h-3v4h3v3h4v-3h3z" fill="#a8dba8"/><rect fill="#79bd9a" height="8" rx="3" width="6" x="19" y="53"/><rect fill="#79bd9a" height="8" rx="3" width="6" x="39" y="53"/><g fill="#3b8686"><path d="m37 33h-2v-2a1 1 0 0 0 -1-1h-4a1 1 0 0 0 -1 1v2h-2a1 1 0 0 0 -1 1v4a1 1 0 0 0 1 1h2v2a1 1 0 0 0 1 1h4a1 1 0 0 0 1-1v-2h2a1 1 0 0 0 1-1v-4a1 1 0 0 0 -1-1zm-1 4h-2a1 1 0 0 0 -1 1v2h-2v-2a1 1 0 0 0 -1-1h-2v-2h2a1 1 0 0 0 1-1v-2h2v2a1 1 0 0 0 1 1h2z"/><path d="m38.87 10.5a31.84 31.84 0 0 0 -13.74 0 4 4 0 0 0 -3.13 3.91v8.18a4 4 0 0 0 3.13 3.91 31.71 31.71 0 0 0 6.87.75 31.71 31.71 0 0 0 6.87-.75 4 4 0 0 0 3.13-3.91v-8.18a4 4 0 0 0 -3.13-3.91zm1.13 12.09a2 2 0 0 1 -1.57 2 30 30 0 0 1 -12.86 0 2 2 0 0 1 -1.57-2v-8.18a2 2 0 0 1 1.57-2 29.88 29.88 0 0 1 12.86 0 2 2 0 0 1 1.57 2z"/><path d="m37 15h-2a1 1 0 0 0 0 2h2a1 1 0 0 0 0-2z"/><path d="m30 16a1 1 0 0 0 -1-1h-2a1 1 0 0 0 0 2h2a1 1 0 0 0 1-1z"/><path d="m33.41 19.41a2 2 0 0 1 -2.82 0 1 1 0 0 0 -1.42 1.42 4 4 0 0 0 5.66 0 1 1 0 1 0 -1.42-1.42z"/><path d="m61 42h-1v-3a1 1 0 0 0 -1-1h-1v-7a5 5 0 0 0 -1.45-3.52s0 0 0 0a5 5 0 0 0 -3.55-1.48h-5.87l.56-7a15.74 15.74 0 1 0 -31.38 0l.56 7h-4.87v-5.89a3.17 3.17 0 0 0 -1-2.3.81.81 0 0 0 .81-.81.82.82 0 0 0 -.82-.82h-1.17v-1.18h1.18a1 1 0 0 0 1-1v-8a1 1 0 0 0 -1-1h-1v-2a1 1 0 0 0 -2 0v2h-1a1 1 0 0 0 -1 1v8a1 1 0 0 0 1 1h1.18v1.18h-1.18a.82.82 0 0 0 0 1.63 3 3 0 0 0 -1 2.19v7a5 5 0 0 0 1.45 3.52s0 0 0 0a5 5 0 0 0 3.55 1.48h6.36l.64 8.12a14.11 14.11 0 0 0 7.85 11.45v2.43h-.44a4 4 0 0 0 -7.41 2v2a4 4 0 0 0 7.44 2h13.12a4 4 0 0 0 7.44-2v-2a4 4 0 0 0 -7.44-2h-.44v-2.43a14.11 14.11 0 0 0 7.88-11.45l.64-8.12h5.36v5.89s0 .11 0 .11h-1a1 1 0 0 0 -1 1v3h-1a1 1 0 0 0 -1 1v12a1 1 0 0 0 1 1h12a1 1 0 0 0 1-1v-12a1 1 0 0 0 -1-1zm-51-35v2h-2v-2zm-2 4h2v2h-2zm.3 17.29a3 3 0 0 1 -.3-1.29v-2h2v1.59zm0-9a1 1 0 0 1 .7-.29h.18a1.09 1.09 0 0 1 .82 1.1v2.9h-2v-3a1 1 0 0 1 .35-.76zm1.41 10.41 1.7-1.7h1.59v2h-2a3 3 0 0 1 -1.29-.3zm5.29.3v-2h2l.16 2zm7 30a2 2 0 0 1 -2-2v-2a2 2 0 0 1 4 0v2a2 2 0 0 1 -2 2zm20-6a2 2 0 0 1 2 2v2a2 2 0 0 1 -4 0v-2a2 2 0 0 1 2-2zm-4 4h-12v-2h12zm-2.12-4h-7.76v-1.56a13.72 13.72 0 0 0 7.76 0zm-3.88-3a12.09 12.09 0 0 1 -12-11l-.74-9-.18-2.26-.8-9.79a13.75 13.75 0 1 1 27.4 0l-.8 9.79-.18 2.26-.7 9a12.09 12.09 0 0 1 -12 11zm22-13.11v-2.89h2v3a1 1 0 0 1 -.35.76 1 1 0 0 1 -.83.23 1.09 1.09 0 0 1 -.82-1.1zm1.7-8.18a3 3 0 0 1 .3 1.29v2h-2v-1.59zm-8.7-1.71h2v2h-2.2zm4 2v-2h2a3 3 0 0 1 1.29.3l-1.7 1.7zm1 10h.81a2.87 2.87 0 0 0 1.69 1 2.81 2.81 0 0 0 .5 0 3 3 0 0 0 1.94-.71 2.44 2.44 0 0 0 .27-.29h.79v2h-6zm8 14h-10v-10h10z"/><path d="m57 48h-1v-1a1 1 0 0 0 -2 0v1h-1a1 1 0 0 0 0 2h1v1a1 1 0 0 0 2 0v-1h1a1 1 0 0 0 0-2z"/></g></svg>