<svg height="512" viewBox="0 0 64 64" width="512" xmlns="http://www.w3.org/2000/svg"><path d="m14 28v-8h-3a4 4 0 0 0 -4 4v22a4 4 0 0 0 4 4h42a4 4 0 0 0 4-4v-6h-31a12 12 0 0 1 -12-12z" fill="#cff09e"/><path d="m22 57h20a2 2 0 0 1 2 2v2a0 0 0 0 1 0 0h-24a0 0 0 0 1 0 0v-2a2 2 0 0 1 2-2z" fill="#a8dba8"/><path d="m39 57h-14l2-7h10z" fill="#a8dba8"/><path d="m7 44h50a0 0 0 0 1 0 0v2a4 4 0 0 1 -4 4h-42a4 4 0 0 1 -4-4v-2a0 0 0 0 1 0 0z" fill="#a8dba8"/><path d="m17 15v-5h-4v29h24v-4a20 20 0 0 1 -20-20z" fill="#cff09e"/><path d="m32 23h-4v-4h-6v4h-4v6h4v4h6v-4h4z" fill="#a8dba8"/><path d="m19 7h12v6h-12z" fill="#a8dba8"/><path d="m41 28h12v8h-12z" fill="#79bd9a"/><path d="m41 36h12v8h-12z" fill="#79bd9a"/><g fill="#3b8686"><path d="m18 30h3v3a1 1 0 0 0 1 1h6a1 1 0 0 0 1-1v-3h3a1 1 0 0 0 1-1v-6a1 1 0 0 0 -1-1h-3v-3a1 1 0 0 0 -1-1h-6a1 1 0 0 0 -1 1v3h-3a1 1 0 0 0 -1 1v6a1 1 0 0 0 1 1zm1-6h3a1 1 0 0 0 1-1v-3h4v3a1 1 0 0 0 1 1h3v4h-3a1 1 0 0 0 -1 1v3h-4v-3a1 1 0 0 0 -1-1h-3z"/><path d="m41.64 6.64a9 9 0 0 1 12.72 0 1 1 0 0 0 .71.29 1 1 0 0 0 .71-.29 1 1 0 0 0 0-1.42 11 11 0 0 0 -15.56 0 1 1 0 0 0 1.42 1.42z"/><path d="m52.24 9.76a1 1 0 0 0 .76-1.71 7 7 0 0 0 -9.9 0 1 1 0 1 0 1.41 1.41 5 5 0 0 1 7.08 0 1 1 0 0 0 .65.3z"/><path d="m45.88 10.88a1 1 0 1 0 1.41 1.41 1 1 0 0 1 1.42 0 1 1 0 0 0 1.41 0 1 1 0 0 0 0-1.41 3.08 3.08 0 0 0 -4.24 0z"/><circle cx="49" cy="32" r="1"/><circle cx="45" cy="40" r="1"/><path d="m53 19h-4v-4a1 1 0 0 0 -2 0v4h-9v-9a1 1 0 0 0 -1-1h-5v-2a1 1 0 0 0 -1-1h-2a4 4 0 0 0 -8 0h-2a1 1 0 0 0 -1 1v2h-5a1 1 0 0 0 -1 1v9h-1a5 5 0 0 0 -5 5v22a5 5 0 0 0 5 5h14.67l-1.42 5h-2.25a3 3 0 0 0 -3 3v2a1 1 0 0 0 1 1h24a1 1 0 0 0 1-1v-2a3 3 0 0 0 -3-3h-2.25l-1.42-5h14.67a5 5 0 0 0 5-5v-22a5 5 0 0 0 -5-5zm0 2a3 3 0 0 1 3 3v19h-2v-15a1 1 0 0 0 -1-1h-4v-6zm-1 8v6h-10v-2h3a1 1 0 0 0 0-2h-3v-2zm-10 8h10v2h-3a1 1 0 0 0 0 2h3v2h-10zm5-16v6h-2v-3a1 1 0 0 0 -1-1h-6v-2zm-22-17a2 2 0 0 1 2 2h-4a2 2 0 0 1 2-2zm-5 4h10v4h-10zm-6 3h4v2a1 1 0 0 0 1 1h12a1 1 0 0 0 1-1v-2h4v27h-22zm-3 10h1v18a1 1 0 0 0 1 1h24a1 1 0 0 0 1-1v-14h5v2h-2a1 1 0 0 0 -1 1v15h-32v-19a3 3 0 0 1 3-3zm32 38v1h-22v-1a1 1 0 0 1 1-1h20a1 1 0 0 1 1 1zm-5.33-3h-11.34l1.42-5h8.5zm18.33-10a3 3 0 0 1 -3 3h-42a3 3 0 0 1 -3-3v-1h48z"/></g></svg>