<svg height="512" viewBox="0 0 64 64" width="512" xmlns="http://www.w3.org/2000/svg"><path d="m37 35.53-2.12-2.12-2.88 2.82-.71-.7-2.83 2.83-2.83-2.83 2.83-2.83-.7-.71 2.82-2.83-2.11-2.16 3.77-3.77a20 20 0 1 0 8.49 8.49z" fill="#a8dba8"/><path d="m34.84 33.41-2.84 2.82-.71-.7-2.83 2.83-2.83-2.83 2.83-2.83-.7-.71 2.82-2.83-2.11-2.11a15 15 0 1 0 8.53 8.47z" fill="#79bd9a"/><path d="m31.3 35.53-2.83 2.83-2.83-2.83 2.83-2.83-.16-.16a10 10 0 1 0 3.15 3.15z" fill="#a8dba8"/><circle cx="23" cy="41" fill="#79bd9a" r="5"/><path d="m42.62 25.87a8 8 0 0 1 -11.32 0l-.83-.87-2 2 8.53 8.53 15.51-15.53-2-2z" fill="#cff09e"/><path d="m28.3 30.7h6v4h-6z" fill="#cff09e" transform="matrix(.707 .707 -.707 .707 32.29 -12.56)"/><path d="m42.62 25.87a8 8 0 0 1 -11.32 0l-.83-.87-2 2 8.53 8.53 12-12-2-2z" fill="#cff09e"/><path d="m28.47 32.7-1 1 .42.41a2 2 0 0 1 0 2.83l-.42.42 1 1 2.83-2.83z" fill="#cff09e"/><path d="m55.34 9.9-5.57-5.57-1.5 1.5 9.9 9.9 2.83-2.83-1.94-1.9a4 4 0 0 1 -3.72-1.1z" fill="#cff09e"/><path d="m53.22 12a4 4 0 0 1 -5.56.08l-1.51 1.51 4.24 4.24 5-5-1.5-1.5z" fill="#cff09e"/><circle cx="55" cy="53" fill="#a8dba8" r="6"/><path d="m55 47v6h6a6 6 0 0 0 -6-6z" fill="#cff09e"/><g fill="#3b8686"><path d="m45 54a1 1 0 0 0 0-2h-4.15a20.82 20.82 0 0 0 1.09-20l11.28-11.32a1 1 0 0 0 0-1.42l-1.41-1.41 3.53-3.54 2.12 2.13a1 1 0 0 0 .71.29 1 1 0 0 0 .71-.29l2.83-2.83a1 1 0 0 0 0-1.42l-9.9-9.9a1 1 0 0 0 -1.42 0l-2.83 2.83a1 1 0 0 0 0 1.42l2.13 2.12-3.54 3.53-1.41-1.41a1 1 0 0 0 -1.42 0l-11.32 11.28a20.82 20.82 0 0 0 -20 1.09v-5.15a1 1 0 0 0 -2 0v6.54a21 21 0 1 0 29.46 29.46zm6.1-49.59 8.49 8.49-1.42 1.41-2.12-2.12-4.24-4.19-2.12-2.17zm0 5.66 2.83 2.83-3.54 3.54-2.83-2.83zm-9.1 30.93a18.87 18.87 0 0 1 -3.54 11h-3.87a16 16 0 0 0 4.41-11 15.71 15.71 0 0 0 -.9-5.2l2.33-2.33a18.68 18.68 0 0 1 1.57 7.53zm-5-6.89-7.11-7.11 1.41-1.41 2.12 2.12a1 1 0 0 0 1.42 0 1 1 0 0 0 0-1.42l-2.12-2.12 1.41-1.41 2.12 2.12a1 1 0 0 0 .71.29 1 1 0 0 0 .71-1.7l-2.13-2.13 1.46-1.34 2.12 2.12a1 1 0 0 0 1.41 0 1 1 0 0 0 0-1.41l-2.12-2.12 2.12-2.12 7.07 7.07zm-10 6.89a4 4 0 0 1 -3 3.86v-.86a1 1 0 0 0 -2 0v.86a4 4 0 0 1 -2.86-2.86h.86a1 1 0 0 0 0-2h-.86a4 4 0 0 1 5.86-2.43l-2.2 2.2a1 1 0 0 0 0 1.41 1 1 0 0 0 1.41 0l2.2-2.2a4 4 0 0 1 .59 2.02zm.77-4.76-.7-.7 1.41-1.42 1.42 1.42-1.42 1.41zm-.91-3.35-1.92 1.93a.84.84 0 0 0 -.24.43 6 6 0 0 0 -7.61 4.75h-3a9 9 0 0 1 8.91-8 8.88 8.88 0 0 1 3.86.89zm-9.77 9.11a6 6 0 0 0 4.91 4.91v3a9 9 0 0 1 -7.94-7.91zm6.91 4.91a6 6 0 0 0 4.75-7.61.84.84 0 0 0 .43-.24l1.93-1.92a8.88 8.88 0 0 1 .89 3.86 9 9 0 0 1 -8 8.94zm8-12.09-2.82-2.82 1.41-1.41 2.83 2.83zm-4.08-6.9 1.25 1.24-1.77 1.77a11 11 0 0 0 -15.35 9.07h-.05v-7.63a14 14 0 0 1 11-5.37 13.72 13.72 0 0 1 4.93.92zm-16.92 14.08h1.05a11 11 0 0 0 9.95 10v1a1 1 0 0 0 1 1h5.17a14 14 0 0 1 -18.17-18.17v5.17a1 1 0 0 0 1 1zm13 10a11 11 0 0 0 9.07-15.36l1.77-1.77 1.24 1.25a13.72 13.72 0 0 1 .92 4.88 14 14 0 0 1 -5.37 11zm20-39.1 7.1 7.1-2.1 2.09-7.09-7.09zm-21 9.1a18.68 18.68 0 0 1 7.53 1.57l-2.33 2.33a15.71 15.71 0 0 0 -5.2-.9 16 16 0 0 0 -11 4.41v-3.87a18.87 18.87 0 0 1 11-3.54zm0 38a19 19 0 0 1 -13-32.82v4.53a16 16 0 0 0 22.29 22.29h4.53a19 19 0 0 1 -13.82 6z"/><path d="m55 46a7 7 0 1 0 7 7 7 7 0 0 0 -7-7zm4.9 6h-3.9v-3.9a5 5 0 0 1 3.9 3.9zm-4.9 6a5 5 0 0 1 -1-9.9v4.9a1 1 0 0 0 1 1h4.9a5 5 0 0 1 -4.9 4z"/><path d="m46 58h-2a1 1 0 0 0 0 2h2a1 1 0 0 0 0-2z"/><path d="m61 41h-7a1 1 0 0 0 0 2h7a1 1 0 0 0 0-2z"/><path d="m61 37h-5a1 1 0 0 0 0 2h5a1 1 0 0 0 0-2z"/><path d="m3 15h18a1 1 0 0 0 0-2h-17v-10a1 1 0 0 0 -2 0v11a1 1 0 0 0 1 1z"/><path d="m7 11a1 1 0 0 0 .6-.2l3.31-2.48 2.38 2.39a1.07 1.07 0 0 0 .71.29 1 1 0 0 0 .72-.35l6-7a1 1 0 0 0 -1.52-1.3l-5.3 6.18-2.19-2.24a1 1 0 0 0 -1.31-.09l-4 3a1 1 0 0 0 -.2 1.4 1 1 0 0 0 .8.4z"/><circle cx="26" cy="10" r="1"/><circle cx="26" cy="14" r="1"/><path d="m26 7h5a1 1 0 0 0 0-2h-5a1 1 0 0 0 0 2z"/></g></svg>