<svg height="512" viewBox="0 0 64 64" width="512" xmlns="http://www.w3.org/2000/svg"><path d="m42.34 39.52a15.68 15.68 0 0 1 -2.82 2.82l6 6 2.83-2.83z" fill="#cff09e"/><rect fill="#79bd9a" height="17" rx="2" transform="matrix(.707 -.707 .707 .707 -21.95 52.99)" width="8" x="48.99" y="44.49"/><path d="m17.81 22.81a13 13 0 0 1 20.9 14.81 13 13 0 1 0 -21.42-14.24c.17-.19.33-.38.52-.57z" fill="#cff09e"/><path d="m19.81 19.81a13 13 0 0 0 -2.34 15.19h5.53v5.53a13 13 0 0 0 15.19-2.34z" fill="#cff09e"/><path d="m35 27h-4v-4h-4v4h-4v4h4v4h4v-4h4z" fill="#a8dba8"/><path d="m8 47v-12h-3v26h18v-3h-4a11 11 0 0 1 -11-11z" fill="#cff09e"/><path d="m40 3h-1a2 2 0 0 0 0 4h8a2 2 0 0 0 2-2h-7a2 2 0 0 1 -2-2z" fill="#cff09e"/><path d="m40 7v5l-5.28 6.16a3 3 0 0 0 -.72 1.95v.89a3 3 0 0 0 3 3h3.65a3.65 3.65 0 0 1 -2.77-6l3.41-5a4 4 0 0 0 .71-2.25v-.75a1 1 0 0 1 1-1h3v-2z" fill="#cff09e"/><path d="m47.13 13.32a5.52 5.52 0 0 0 -4 1 5.49 5.49 0 0 1 -4.8.89l-.89-.21-2.72 3.18a3 3 0 0 0 -.72 1.93v.89a3 3 0 0 0 3 3h12a3 3 0 0 0 3-3v-.89a3 3 0 0 0 -.72-1.95z" fill="#79bd9a"/><path d="m41 17a17 17 0 1 0 0 24 17 17 0 0 0 0-24zm-2.81 21.19a13 13 0 1 1 0-18.38 13 13 0 0 1 0 18.38z" fill="#a8dba8"/><g fill="#3b8686"><path d="m61.12 54.05-9.19-9.19a3 3 0 0 0 -3.41-.58l-4.86-4.86a17.84 17.84 0 0 0 3.34-9.42h7a5 5 0 0 0 5-5v-16l1.2 1.6a1 1 0 0 0 .8.4 1 1 0 0 0 .6-.2 1 1 0 0 0 .2-1.4l-3-4a1 1 0 0 0 -1.6 0l-3 4a1 1 0 0 0 1.6 1.2l1.2-1.6v16a3 3 0 0 1 -3 3h-7a17.61 17.61 0 0 0 -.41-3h2.41a4 4 0 0 0 4-4v-.89a4 4 0 0 0 -1-2.6l-5-5.88v-3.63a3 3 0 0 0 0-6h-8a3 3 0 0 0 0 6v3.63l-1.36 1.58a18 18 0 0 0 -25.23 8.79h-2.41a3 3 0 0 1 -3-3v-13l1.2 1.6a1 1 0 0 0 .8.4 1 1 0 0 0 .6-.2 1 1 0 0 0 .2-1.4l-3-4a1 1 0 0 0 -1.6 0l-3 4a1 1 0 1 0 1.6 1.2l1.2-1.6v13a5 5 0 0 0 5 5h1.71a18 18 0 0 0 0 10h-6.71a1 1 0 0 0 -1 1v26a1 1 0 0 0 1 1h18a1 1 0 0 0 1-1v-14.71a18.14 18.14 0 0 0 5 .71 17.87 17.87 0 0 0 10.42-3.34l4.86 4.86a3 3 0 0 0 .58 3.41l9.19 9.19a3 3 0 0 0 4.24 0l2.83-2.83a3 3 0 0 0 0-4.24zm-10.12-33.94v.89a2 2 0 0 1 -2 2h-3a17.89 17.89 0 0 0 -4.23-6.73.27.27 0 0 1 -.08-.07 6.3 6.3 0 0 0 2.13-1 4.41 4.41 0 0 1 2.87-.86l3.87 4.51a2 2 0 0 1 .44 1.26zm-13-15.11a1 1 0 0 1 1-1h8a1 1 0 0 1 0 2h-8a1 1 0 0 1 -1-1zm2.76 7.65a1 1 0 0 0 .24-.65v-4h4v4a.88.88 0 0 0 .11.42 6.66 6.66 0 0 0 -2.53 1.14 4.38 4.38 0 0 1 -3 .86l-.18-.13zm-23.07 5a16 16 0 0 1 26.62 6.64s0 .05 0 .07a15.51 15.51 0 0 1 .69 3.64h-2a14 14 0 0 0 -26.06-6h-2.32a15.79 15.79 0 0 1 3.07-4.31zm21.31 12.35h2a12 12 0 0 1 -17 9.9v-4.9a1 1 0 0 0 -1-1h-4.9a11.91 11.91 0 0 1 0-10h4.9a1 1 0 0 0 0-2h-3.73a12.4 12.4 0 0 1 1.24-1.49 12 12 0 0 1 13.15-2.57 4 4 0 0 0 -.66 2.17v.89a4 4 0 0 0 4 4h3.31a12.15 12.15 0 0 1 .69 3h-2a1 1 0 0 0 0 2zm-18.49 7.49a12.4 12.4 0 0 1 -1.24-1.49h2.73v2.73a12.4 12.4 0 0 1 -1.49-1.24zm14.49-17.38a2 2 0 0 1 .43-1.23 11.91 11.91 0 0 1 2.06 1.63 12.21 12.21 0 0 1 1.89 2.49h-2.38a2 2 0 0 1 -2-2zm-13 39.89h-16v-24h6.41a18 18 0 0 0 9.59 9.59zm1.39-16a15.94 15.94 0 0 1 -9.39-9.38 16 16 0 0 1 -1-5.62 15.78 15.78 0 0 1 .81-5h2.12a14 14 0 0 0 .61 11.38 14 14 0 0 0 6.05 6.05 14 14 0 0 0 20.41-11.43h2a16 16 0 0 1 -16 15 16 16 0 0 1 -5.61-1zm18.34-2.25c.24-.24.45-.5.67-.74l4.6 4.56-1.43 1.43-4.57-4.6c.23-.22.49-.4.73-.67zm18 15.15-2.83 2.83a1 1 0 0 1 -1.42 0l-9.19-9.2a1 1 0 0 1 0-1.41l2.83-2.83a1 1 0 0 1 .71-.29 1 1 0 0 1 .7.29l9.2 9.2a1 1 0 0 1 .29.7 1 1 0 0 1 -.31.69z"/><path d="m35 26h-3v-3a1 1 0 0 0 -1-1h-4a1 1 0 0 0 -1 1v3h-3a1 1 0 0 0 -1 1v4a1 1 0 0 0 1 1h3v3a1 1 0 0 0 1 1h4a1 1 0 0 0 1-1v-3h3a1 1 0 0 0 1-1v-4a1 1 0 0 0 -1-1zm-1 4h-3a1 1 0 0 0 -1 1v3h-2v-3a1 1 0 0 0 -1-1h-3v-2h3a1 1 0 0 0 1-1v-3h2v3a1 1 0 0 0 1 1h3z"/><path d="m9 42h3a1 1 0 0 0 0-2h-3a1 1 0 0 0 0 2z"/><path d="m9 44a1 1 0 0 0 0 2h7a1 1 0 0 0 0-2z"/><path d="m8 49a1 1 0 0 0 1 1h10a1 1 0 0 0 0-2h-10a1 1 0 0 0 -1 1z"/><path d="m16 54h-1v-1a1 1 0 0 0 -2 0v1h-1a1 1 0 0 0 0 2h1v1a1 1 0 0 0 2 0v-1h1a1 1 0 0 0 0-2z"/></g></svg>