<svg height="512" viewBox="0 0 64 64" width="512" xmlns="http://www.w3.org/2000/svg"><path d="m33.6 40.2-3.2-2.4 4.6-6.13v-18.67h-22v12.25l4.2 3.15a2 2 0 0 1 .8 1.17l2 9-3.9.86-1.84-8.27-1.26-.91v30.75h22v-22.67zm-11.35-2.2 4.34-7.8-4.13-4.95a2 2 0 0 1 -.46-1.25v-7h4v6.28l4.54 5.44a2 2 0 0 1 .21 2.28l-5 9z" fill="#79bd9a"/><path d="m51 43h4v14h-4z" fill="#79bd9a"/><path d="m6 7h36v6h-36z" fill="#cff09e"/><path d="m14 3h20v4h-20z" fill="#a8dba8"/><g fill="#cff09e"><path d="m38 17v6.72l-1.82 6.38-5.78 7.7 3.2 2.4.72-1-.32-.2a2 2 0 0 1 -.4-2.8l4.58-6.1 1.82-6.38v-2.72a2 2 0 0 1 2-2v-2z"/><path d="m28.59 30.23-4.13-4.95a2 2 0 0 1 -.46-1.28v-3a2 2 0 0 1 2-2v-2h-4v7a2 2 0 0 0 .46 1.28l4.13 4.95-4.34 7.77 3.5 2 .47-.85-.22-.15a2 2 0 0 1 -.78-2.72z"/><path d="m16.21 31.16-7.41-5.56a2 2 0 0 1 -.8-1.6v-3a2 2 0 0 1 2-2v-2h-4v7a2 2 0 0 0 .8 1.6l7.41 5.56 1.84 8.27 1.95-.43z"/><path d="m37 34a2 2 0 0 0 0-4 2 2 0 0 0 -.93.24l-1 1.37a1.72 1.72 0 0 0 -.07.39 2 2 0 0 0 2 2z"/><path d="m39 27a2 2 0 1 0 -1-3.72v.44l-.68 2.37a2 2 0 0 0 1.68.91z"/><path d="m25 25a2 2 0 0 0 -3-1.72v.72a2 2 0 0 0 .46 1.28l1.31 1.57a2 2 0 0 0 1.23-1.85z"/><path d="m28 33a2 2 0 1 0 -1.68-3.09l.27.32-.57 1a2 2 0 0 0 1.98 1.77z"/><path d="m9 25a2 2 0 0 0 -3-1.72v.72a2 2 0 0 0 .8 1.6l1.36 1a2 2 0 0 0 .84-1.6z"/><path d="m17 31a2 2 0 0 0 -3.88-.66l1.09.82.4 1.8a1.72 1.72 0 0 0 .39.04 2 2 0 0 0 2-2z"/></g><path d="m3 13h10v4h-10z" fill="#a8dba8"/><path d="m19 13h10v4h-10z" fill="#a8dba8"/><path d="m35 13h10v4h-10z" fill="#a8dba8"/><circle cx="38" cy="31" fill="#a8dba8" r="2"/><circle cx="40" cy="24" fill="#a8dba8" r="2"/><circle cx="24" cy="24" fill="#a8dba8" r="2"/><circle cx="29" cy="30" fill="#a8dba8" r="2"/><circle cx="8" cy="24" fill="#a8dba8" r="2"/><circle cx="16" cy="30" fill="#a8dba8" r="2"/><path d="m3 57h58v4h-58z" fill="#79bd9a"/><path d="m55 61h-42v-10a4 4 0 0 1 4-4h18.5l16.3 3.34a4 4 0 0 1 3.2 3.92z" fill="#a8dba8"/><path d="m18 47h10v4h-10z" fill="#cff09e"/><path d="m8 47a5 5 0 0 1 5 5v5a0 0 0 0 1 0 0h-5a5 5 0 0 1 -5-5 5 5 0 0 1 5-5z" fill="#cff09e"/><path d="m6 45h2a0 0 0 0 1 0 0v12a0 0 0 0 1 0 0h-2a4 4 0 0 1 -4-4v-4a4 4 0 0 1 4-4z" fill="#a8dba8"/><path d="m20 47h6a0 0 0 0 1 0 0 2 2 0 0 1 -2 2h-2a2 2 0 0 1 -2-2 0 0 0 0 1 0 0z" fill="#79bd9a"/><path d="m49 31v-2h-4v14h16v-4h-4a8 8 0 0 1 -8-8z" fill="#cff09e"/><path d="m56 44h5a1 1 0 0 0 1-1v-14a1 1 0 0 0 -1-1h-16a1 1 0 0 0 -1 1v14a1 1 0 0 0 1 1h5v5l-14-2.92v-7.41l4.4-5.87v-.06a3 3 0 0 0 .42-.89l2-7a2.92 2.92 0 0 0 .18-.85v-6h2a1 1 0 0 0 1-1v-4a1 1 0 0 0 -1-1h-2v-5a1 1 0 0 0 -1-1h-7v-3a1 1 0 0 0 -1-1h-20a1 1 0 0 0 -1 1v3h-7a1 1 0 0 0 -1 1v5h-2a1 1 0 0 0 -1 1v4a1 1 0 0 0 1 1h2v6a3 3 0 0 0 1.06 2.27l.09.08 5.85 4.4v16.79a6 6 0 0 0 -3-1.45v-1.09a1 1 0 0 0 -1-1h-2a5 5 0 0 0 -5 5v4a5 5 0 0 0 1.28 3.31 1 1 0 0 0 -.28.69v4a1 1 0 0 0 2 0v-3h8v3a1 1 0 0 0 2 0v-10a3 3 0 0 1 3-3v3a1 1 0 0 0 1 1h10a1 1 0 0 0 1-1v-3h6.4l16.2 3.32a3 3 0 0 1 2.4 2.94v6.74a1 1 0 0 0 2 0v-3h4v3a1 1 0 0 0 2 0v-4a1 1 0 0 0 -1-1h-5zm-10-14h14v12h-14zm-14.2 7.6 3.7-4.94a3 3 0 0 0 1.61 1.19l-3.71 4.95zm7.94-9a3 3 0 0 0 -1.74-.6h-.19l.45-1.58a3 3 0 0 0 1.74.58h.19zm-.74 2.68a1.05 1.05 0 0 1 -.15.3 1 1 0 0 1 -.85.42 1 1 0 1 1 1-1s0 .06 0 .09zm2-7a1 1 0 1 1 0-.28.91.91 0 0 1 0 .23zm-4-.65-1 3.5v-9.13h1zm4-2.4a2.87 2.87 0 0 0 -2 0v-3.23h2zm3-5.23h-8v-2h8zm-29-12h18v2h-18zm-8 4h34v4h-34zm16.61 29.64 3.15-5.64a3 3 0 0 0 1.75 1l-3.15 5.66zm5.39-8.64a1 1 0 0 1 .78.39 1 1 0 0 1 .2.5 1 1 0 0 1 -.11.51 1 1 0 0 1 -.87.6 1 1 0 0 1 0-2zm-2.57-.52-1.43-1.68a3 3 0 0 0 1.53-1.28l1.47 1.68a3 3 0 0 0 -1.57 1.28zm-2.43-3.48a1 1 0 0 1 -.79-.4 1 1 0 0 1 -.21-.6 1 1 0 1 1 1 1zm1-3.82a2.87 2.87 0 0 0 -2 0v-3.18h2zm-5-5.18v-2h8v2zm-1.24 21.81-2 .43-1.13-5.24a2.33 2.33 0 0 0 .37 0 3 3 0 0 0 1.59-.46zm-1.76-7.81a1 1 0 1 1 -1-1 1 1 0 0 1 .65.25 1 1 0 0 1 .33.53v.15s.02.07.02.07zm-3.85-.89-3.49-2.61a3 3 0 0 0 1.19-1.61l3.49 2.61a3 3 0 0 0 -1.19 1.61zm-6.15-5.11a1 1 0 1 1 1 1 1 1 0 0 1 -.63-.24 1 1 0 0 1 -.37-.76zm4-1.5v-4.5h1v5.25zm-7-8.5h8v2h-8zm5 4v3.18a2.87 2.87 0 0 0 -2 0v-3.18zm-3 38a3 3 0 0 1 -3-3v-4a3 3 0 0 1 3-3h1v10zm3 0v-7.86a4 4 0 0 1 3 3.86v4zm5-9v-12.17l1.07 4.82a1 1 0 0 0 1 .78.86.86 0 0 0 .22 0l.95-.21.8 4a1 1 0 0 0 1 .8h.2a1 1 0 0 0 .76-1.22l-.81-4 1-.22a1 1 0 0 0 .76-1.19l-2-9a3.05 3.05 0 0 0 -.95-1.61 2 2 0 0 0 -.16-.14l-3.84-2.89v-10.75h4v3a1 1 0 0 0 1 1h2v6a3 3 0 0 0 .58 1.75s0 0 0 0a.94.94 0 0 0 .09.12l3.68 4.42-4 7.2a1 1 0 0 0 -.09.76 1 1 0 0 0 .48.6l.84.47-1.68 2.8a1 1 0 0 0 .35 1.37.94.94 0 0 0 .51.14 1 1 0 0 0 .86-.48l1.71-2.86.9.51a1.07 1.07 0 0 0 .49.12 1 1 0 0 0 .87-.51l5-9a3.05 3.05 0 0 0 .41-1.58 3 3 0 0 0 -.68-1.73l-4.32-5.19v-4.91h2a1 1 0 0 0 1-1v-3h4v17.33l-4.4 5.87a1 1 0 0 0 .2 1.4l.76.57-1.83 2.19a1 1 0 0 0 .13 1.41 1 1 0 0 0 .64.23 1 1 0 0 0 .77-.36l1.89-2.27.84.63a1 1 0 0 0 .6.2h.14a.8.8 0 0 0 .26-.1v4.9h-17a4.92 4.92 0 0 0 -3 1zm13 3h-8v-2h8zm25-.64v-5.36h2v6.29a5 5 0 0 0 -2-.93z" fill="#3b8686"/><path d="m52.17 36.55a1 1 0 0 0 1.66 0l1.33-2 1.13 1.14a1 1 0 0 0 1.42-1.42l-2-2a1 1 0 0 0 -.81-.27 1 1 0 0 0 -.73.45l-1.17 1.75-1.17-1.75a1 1 0 0 0 -1.66 0l-2 3a1 1 0 0 0 .28 1.38.94.94 0 0 0 .55.17 1 1 0 0 0 .83-.45l1.17-1.75z" fill="#3b8686"/><circle cx="51" cy="39" fill="#3b8686" r="1"/><circle cx="55" cy="39" fill="#3b8686" r="1"/><path d="m40 56h-10a1 1 0 0 0 0 2h10a1 1 0 0 0 0-2z" fill="#3b8686"/><path d="m48 56h-3a1 1 0 0 0 0 2h3a1 1 0 0 0 0-2z" fill="#3b8686"/><path d="m24 56h-4a1 1 0 0 0 0 2h4a1 1 0 0 0 0-2z" fill="#3b8686"/></svg>