<svg height="512" viewBox="0 0 64 64" width="512" xmlns="http://www.w3.org/2000/svg"><path d="m61 11v-8h-58v58h58v-8h-27a22 22 0 0 1 -22-22v-20z" fill="#cff09e"/><path d="m2 3h58v8h-58z" fill="#a8dba8"/><path d="m2 3h16v8h-16z" fill="#79bd9a"/><path d="m15 26h28v28h-28z" fill="#a8dba8"/><path d="m37 37h-5v-5h-6v5h-5v6h5v5h6v-5h5z" fill="#cff09e"/><rect fill="#79bd9a" height="16" rx="4" width="16" x="7" y="15"/><rect fill="#79bd9a" height="16" rx="4" width="16" x="41" y="41"/><rect fill="#79bd9a" height="16" rx="4" width="16" x="41" y="15"/><path d="m46 52v-6l6 3z" fill="#cff09e"/><circle cx="49" cy="23" fill="#cff09e" r="3"/><g fill="#3b8686"><path d="m37 36h-4v-4a1 1 0 0 0 -1-1h-6a1 1 0 0 0 -1 1v4h-4a1 1 0 0 0 -1 1v6a1 1 0 0 0 1 1h4v4a1 1 0 0 0 1 1h6a1 1 0 0 0 1-1v-4h4a1 1 0 0 0 1-1v-6a1 1 0 0 0 -1-1zm-1 6h-4a1 1 0 0 0 -1 1v4h-4v-4a1 1 0 0 0 -1-1h-4v-4h4a1 1 0 0 0 1-1v-4h4v4a1 1 0 0 0 1 1h4z"/><path d="m61 2h-58a1 1 0 0 0 -1 1v58a1 1 0 0 0 1 1h58a1 1 0 0 0 1-1v-58a1 1 0 0 0 -1-1zm-1 8h-40v-6h40zm-56-6h14v6h-14zm0 56v-48h56v48z"/><path d="m33 8h23a1 1 0 0 0 0-2h-23a1 1 0 0 0 0 2z"/><circle cx="7" cy="7" r="1"/><circle cx="11" cy="7" r="1"/><circle cx="15" cy="7" r="1"/><path d="m23 8h6a1 1 0 0 0 0-2h-6a1 1 0 0 0 0 2z"/><path d="m15 24h1a1 1 0 0 0 0-2h-1v-1a1 1 0 0 1 1-1h1a1 1 0 0 0 0-2h-1a3 3 0 0 0 -3 3v1h-1a1 1 0 0 0 0 2h1v3a1 1 0 0 0 2 0z"/><path d="m45.47 52.85a1 1 0 0 0 .53.15 1 1 0 0 0 .45-.11l6-3a1 1 0 0 0 0-1.78l-6-3a1 1 0 0 0 -1.45.89v6a1 1 0 0 0 .47.85zm1.53-5.23 2.76 1.38-2.76 1.38z"/><path d="m53 14h-8a5 5 0 0 0 -5 5v6h-16v-6a5 5 0 0 0 -5-5h-8a5 5 0 0 0 -5 5v8a5 5 0 0 0 5 5h3v22a1 1 0 0 0 1 1h25.42a5 5 0 0 0 4.58 3h8a5 5 0 0 0 5-5v-8a5 5 0 0 0 -5-5h-8a5.47 5.47 0 0 0 -1 .1v-8.2a5.47 5.47 0 0 0 1 .1h8a5 5 0 0 0 5-5v-8a5 5 0 0 0 -5-5zm-45 13v-8a3 3 0 0 1 3-3h8a3 3 0 0 1 3 3v8a3 3 0 0 1 -3 3h-8a3 3 0 0 1 -3-3zm45 15a3 3 0 0 1 3 3v8a3 3 0 0 1 -3 3h-8a3 3 0 0 1 -3-3v-8a3 3 0 0 1 3-3zm-11-1a5 5 0 0 0 -2 4v8h-24v-21h3a5 5 0 0 0 5-5h16a5 5 0 0 0 2 4zm14-14a3 3 0 0 1 -3 3h-8a3 3 0 0 1 -3-3v-8a3 3 0 0 1 3-3h8a3 3 0 0 1 3 3z"/><path d="m49 19a4 4 0 1 0 4 4 4 4 0 0 0 -4-4zm0 6a2 2 0 1 1 2-2 2 2 0 0 1 -2 2z"/></g></svg>