<svg height="512" viewBox="0 0 64 64" width="512" xmlns="http://www.w3.org/2000/svg"><path d="m13 27v-13h-5a2 2 0 0 0 -2 2v34h52v-7h-29a16 16 0 0 1 -16-16z" fill="#cff09e"/><path d="m3 50h58a0 0 0 0 1 0 0v4a4 4 0 0 1 -4 4h-50a4 4 0 0 1 -4-4v-4a0 0 0 0 1 0 0z" fill="#a8dba8"/><path d="m44.18 20.77.84-.84a3.56 3.56 0 0 1 5 0 3.56 3.56 0 0 1 0 5.05l-5.89 5.9-5.85-5.88a3.56 3.56 0 0 1 0-5.05 3.56 3.56 0 0 1 5 0z" fill="#a8dba8"/><path d="m11 27h4v4h-4z" fill="#79bd9a"/><path d="m19 25h4v6h-4z" fill="#79bd9a"/><path d="m27 21h4v10h-4z" fill="#79bd9a"/><circle cx="17" cy="41" fill="#a8dba8" r="5"/><path d="m17 36v5h5a5 5 0 0 0 -5-5z" fill="#79bd9a"/><path d="m53 39h-3v-3h-4v3h-3v4h3v3h4v-3h3z" fill="#a8dba8"/><g fill="#3b8686"><path d="m61 49h-2v-33a3 3 0 0 0 -3-3h-48a3 3 0 0 0 -3 3v33h-2a1 1 0 0 0 -1 1v4a5 5 0 0 0 5 5h50a5 5 0 0 0 5-5v-4a1 1 0 0 0 -1-1zm-54-33a1 1 0 0 1 1-1h48a1 1 0 0 1 1 1v33h-50zm53 38a3 3 0 0 1 -3 3h-50a3 3 0 0 1 -3-3v-3h56z"/><path d="m34 53h-4a1 1 0 0 0 0 2h4a1 1 0 0 0 0-2z"/><circle cx="48" cy="54" r="1"/><circle cx="52" cy="54" r="1"/><circle cx="12" cy="54" r="1"/><circle cx="16" cy="54" r="1"/><path d="m53 22h-.92a4.56 4.56 0 0 0 -7.77-2.78l-.13.13-.18-.13a4.55 4.55 0 0 0 -7.71 3.78h-1.29a1 1 0 0 0 0 2h2a5.13 5.13 0 0 0 .56.69l5.9 5.9a1 1 0 0 0 .71.29 1 1 0 0 0 .7-.29l5.9-5.9a4.56 4.56 0 0 0 1.07-1.69h1.16a1 1 0 0 0 0-2zm-14-1.37a2.56 2.56 0 0 1 1.82-.75 2.6 2.6 0 0 1 1.82.75l.84.85a1 1 0 0 0 1.41 0l.85-.85a2.57 2.57 0 0 1 4.34 1.37h-3.08a1 1 0 0 0 -.8.4l-2.11 2.81-2.23-3.72a1 1 0 0 0 -1.41-.32l-2.2 1.46a2.55 2.55 0 0 1 .75-2zm10.38 3.64-5.19 5.19-5-5 1.53-1 2.46 4.1a1 1 0 0 0 .82.44 1 1 0 0 0 .8-.4l2.7-3.6h2.09a2.88 2.88 0 0 1 -.22.27z"/><path d="m15 32a1 1 0 0 0 1-1v-4a1 1 0 0 0 -1-1h-4a1 1 0 0 0 -1 1v4a1 1 0 0 0 1 1zm-3-4h2v2h-2z"/><path d="m23 24h-4a1 1 0 0 0 -1 1v6a1 1 0 0 0 1 1h4a1 1 0 0 0 1-1v-6a1 1 0 0 0 -1-1zm-1 6h-2v-4h2z"/><path d="m27 32h4a1 1 0 0 0 1-1v-10a1 1 0 0 0 -1-1h-4a1 1 0 0 0 -1 1v10a1 1 0 0 0 1 1zm1-10h2v8h-2z"/><path d="m22.29 17.29a15.55 15.55 0 0 1 -9 4.42l-2.38.3a1 1 0 0 0 .09 1.99h.12l2.39-.3a17.62 17.62 0 0 0 10.2-5 1 1 0 0 0 -1.42-1.42z"/><path d="m17 35a6 6 0 1 0 6 6 6 6 0 0 0 -6-6zm3.86 5h-2.86v-2.86a4 4 0 0 1 2.86 2.86zm-3.86 5a4 4 0 0 1 -1-7.86v3.86a1 1 0 0 0 1 1h3.86a4 4 0 0 1 -3.86 3z"/><path d="m53 38h-2v-2a1 1 0 0 0 -1-1h-4a1 1 0 0 0 -1 1v2h-2a1 1 0 0 0 -1 1v4a1 1 0 0 0 1 1h2v2a1 1 0 0 0 1 1h4a1 1 0 0 0 1-1v-2h2a1 1 0 0 0 1-1v-4a1 1 0 0 0 -1-1zm-1 4h-2a1 1 0 0 0 -1 1v2h-2v-2a1 1 0 0 0 -1-1h-2v-2h2a1 1 0 0 0 1-1v-2h2v2a1 1 0 0 0 1 1h2z"/><path d="m27 38h5a1 1 0 0 0 0-2h-5a1 1 0 0 0 0 2z"/><path d="m36 40h-9a1 1 0 0 0 0 2h9a1 1 0 0 0 0-2z"/><path d="m33 44h-6a1 1 0 0 0 0 2h6a1 1 0 0 0 0-2z"/></g></svg>