<svg height="512" viewBox="0 0 64 64" width="512" xmlns="http://www.w3.org/2000/svg"><path d="m19 29v-25h-6a2 2 0 0 0 -2 2v48a2 2 0 0 0 2 2h30a2 2 0 0 0 2-2v-9h-10a16 16 0 0 1 -16-16z" fill="#cff09e"/><rect fill="#a8dba8" height="4" rx="2" width="10" x="23" y="48"/><path d="m25.18 18.14.56-.56a2.38 2.38 0 0 1 3.37 0 2.38 2.38 0 0 1 0 3.37l-3.93 3.93-3.94-3.88a2.38 2.38 0 0 1 0-3.37 2.38 2.38 0 0 1 3.37 0z" fill="#a8dba8"/><path d="m13 37h-4v-10.5a22.5 22.5 0 0 1 22.5-22.5 22.5 22.5 0 0 1 22.5 22.5v4.5h-4v-4.5a18.5 18.5 0 0 0 -18.5-18.5 18.5 18.5 0 0 0 -18.5 18.5z" fill="#79bd9a"/><path d="m55 31h-6a6 6 0 0 0 -6 6v6h4v-6a2 2 0 0 1 2-2h6a2 2 0 0 1 2 2v6h4v-6a6 6 0 0 0 -6-6z" fill="#79bd9a"/><circle cx="11" cy="43" fill="#a8dba8" r="8"/><circle cx="11" cy="43" fill="#cff09e" r="3"/><path d="m56 55a2 2 0 0 1 -2-2 2 2 0 0 1 .18-.82 2 2 0 1 0 2.64 2.64 2 2 0 0 1 -.82.18z" fill="#cff09e"/><path d="m50 53a2 2 0 0 1 -2-2 2 2 0 0 1 .18-.82 2 2 0 1 0 2.64 2.64 2 2 0 0 1 -.82.18z" fill="#cff09e"/><g fill="#3b8686"><path d="m31 47h-6a3 3 0 0 0 0 6h6a3 3 0 0 0 0-6zm0 4h-6a1 1 0 0 1 0-2h6a1 1 0 0 1 0 2z"/><path d="m24.47 25.59a1 1 0 0 0 .71.29 1 1 0 0 0 .7-.29l3.94-3.94a3.37 3.37 0 0 0 1-2.39 3.4 3.4 0 0 0 -1-2.39 3.46 3.46 0 0 0 -4.64-.14 3.46 3.46 0 0 0 -4.64.14 3.36 3.36 0 0 0 -1 2.39 3.32 3.32 0 0 0 1 2.39zm-2.47-7.31a1.4 1.4 0 0 1 2 0l.56.57a1 1 0 0 0 1.41 0l.57-.57a1.38 1.38 0 1 1 1.95 2l-3.22 3.22-3.27-3.26a1.4 1.4 0 0 1 0-2z"/><path d="m39 33h-6a1 1 0 0 0 -.83.45l-1.05 1.55-2.23-4.46a1 1 0 0 0 -.83-.55 1 1 0 0 0 -.89.45l-1.71 2.56h-5.46a1 1 0 0 0 0 2h6a1 1 0 0 0 .83-.45l1.05-1.55 2.23 4.46a1 1 0 0 0 .83.55h.06a1 1 0 0 0 .83-.45l1.71-2.56h5.46a1 1 0 0 0 0-2z"/><path d="m35 25a1 1 0 0 0 1-1v-7a1 1 0 0 0 -2 0v7a1 1 0 0 0 1 1z"/><path d="m39 16a1 1 0 0 0 -1 1v7a1 1 0 0 0 2 0v-7a1 1 0 0 0 -1-1z"/><path d="m25 43v-2a1 1 0 0 0 -2 0v2a1 1 0 0 0 2 0z"/><path d="m29 43v-2a1 1 0 0 0 -2 0v2a1 1 0 0 0 2 0z"/><path d="m33 43v-2a1 1 0 0 0 -2 0v2a1 1 0 0 0 2 0z"/><path d="m36 40a1 1 0 0 0 -1 1v2a1 1 0 0 0 2 0v-2a1 1 0 0 0 -1-1z"/><path d="m15 43a4 4 0 1 0 -4 4 4 4 0 0 0 4-4zm-6 0a2 2 0 1 1 2 2 2 2 0 0 1 -2-2z"/><path d="m55 30v-3.5a23.46 23.46 0 0 0 -9-18.5v-2a3 3 0 0 0 -3-3h-30a3 3 0 0 0 -3 3v11a23.39 23.39 0 0 0 -2 9.5v8a9 9 0 0 0 2 17.41v2.09a3 3 0 0 0 3 3h30a3 3 0 0 0 3-3v-2a3 3 0 1 0 .79-2 3 3 0 0 1 -.79-2v-4h1a1 1 0 0 0 1-1v-6a1 1 0 0 1 1-1h6a1 1 0 0 1 1 1v6a1 1 0 0 0 1 1h1v6a3 3 0 0 1 -.79 2 3 3 0 1 0 .79 2 5 5 0 0 0 2-4v-6h1a1 1 0 0 0 1-1v-6a7 7 0 0 0 -7-7zm-6 21a1 1 0 1 1 -1 1 1 1 0 0 1 1-1zm6 4a1 1 0 1 1 1-1 1 1 0 0 1 -1 1zm-12-50a1 1 0 0 1 1 1v.61a25.79 25.79 0 0 0 -3-1.61zm-31 1a1 1 0 0 1 1-1h9a23.66 23.66 0 0 0 -10 8.4zm-2 20.5a21.5 21.5 0 0 1 43 0v3.5h-2v-3.5a19.39 19.39 0 0 0 -5.26-13.27.27.27 0 0 0 -.07-.08 19.47 19.47 0 0 0 -33.67 13.35v7.56a8.36 8.36 0 0 0 -2 0zm36 4.19v-14a17.45 17.45 0 0 1 3 9.79v3.52a6.88 6.88 0 0 0 -3 .69zm-42 12.31a7 7 0 1 1 7 7 7 7 0 0 1 -7-7zm40 11a1 1 0 0 1 -1 1h-30a1 1 0 0 1 -1-1v-2.06a9 9 0 0 0 2-17.41v-8a17.48 17.48 0 0 1 30-12.25v17.83a7 7 0 0 0 -2 4.89v6a1 1 0 0 0 1 1h1zm16-12h-2v-5a3 3 0 0 0 -3-3h-6a3 3 0 0 0 -3 3v5h-2v-5a5 5 0 0 1 5-5h6a5 5 0 0 1 5 5z"/></g></svg>