<svg height="512" viewBox="0 0 64 64" width="512" xmlns="http://www.w3.org/2000/svg"><path d="m21 11v-8h-6a4 4 0 0 0 -4 4v28a4 4 0 0 0 4 4h42a4 4 0 0 0 4-4v-4h-20a20 20 0 0 1 -20-20z" fill="#cff09e"/><path d="m45 45h-18l3-6h12z" fill="#a8dba8"/><path d="m24 45h24a3 3 0 0 1 3 3v1a0 0 0 0 1 0 0h-30a0 0 0 0 1 0 0v-1a3 3 0 0 1 3-3z" fill="#a8dba8"/><path d="m29 25h16a4 4 0 0 1 4 4v10a0 0 0 0 1 0 0h-24a0 0 0 0 1 0 0v-10a4 4 0 0 1 4-4z" fill="#79bd9a"/><circle cx="31" cy="33" fill="#cff09e" r="2"/><path d="m37 25a6 6 0 0 1 -3-.81v1.81a3 3 0 0 0 6 0v-1.81a6 6 0 0 1 -3 .81z" fill="#a8dba8"/><path d="m34 7h6a5 5 0 0 1 5 5v2a1 1 0 0 1 -1 1h-14a1 1 0 0 1 -1-1v-2a5 5 0 0 1 5-5z" fill="#79bd9a"/><path d="m34 19a2 2 0 0 1 2-2h7v-2h-12v4a6 6 0 0 0 6 6 5.71 5.71 0 0 0 1.5-.2 6 6 0 0 1 -4.5-5.8z" fill="#cff09e"/><path d="m25 11h-3v-3h-4v3h-3v4h3v3h4v-3h3z" fill="#a8dba8"/><path d="m53 11 .5-.5a2.12 2.12 0 0 1 3 0 2.12 2.12 0 0 1 0 3l-3.5 3.5-3.5-3.5a2.12 2.12 0 0 1 0-3 2.12 2.12 0 0 1 3 0z" fill="#a8dba8"/><path d="m53 22h4v12h-4z" fill="#cff09e"/><path d="m53 30h4v4h-4z" fill="#79bd9a"/><path d="m53 26h4v4h-4z" fill="#a8dba8"/><path d="m14 50.46a2 2 0 0 1 1.37-3.46h5.54a6.64 6.64 0 0 0 .09-1v-4h-12v4a6 6 0 0 0 6 6 6.41 6.41 0 0 0 1.53-.2 6 6 0 0 1 -2.53-1.34z" fill="#cff09e"/><path d="m7 52h16a4 4 0 0 1 4 4v5a0 0 0 0 1 0 0h-24a0 0 0 0 1 0 0v-5a4 4 0 0 1 4-4z" fill="#79bd9a"/><path d="m11 36h8a5 5 0 0 1 5 5v3a2 2 0 0 1 -2 2h-14a2 2 0 0 1 -2-2v-3a5 5 0 0 1 5-5z" fill="#79bd9a"/><path d="m31 53h20v8h-20z" fill="#a8dba8"/><path d="m58.5 54a2.5 2.5 0 0 1 2.5 2.5v2.5a1 1 0 0 1 -1 1h-3a1 1 0 0 1 -1-1v-2.5a2.5 2.5 0 0 1 2.5-2.5z" fill="#a8dba8"/><g fill="#3b8686"><circle cx="40" cy="18" r="1"/><circle cx="34" cy="18" r="1"/><path d="m57 2h-42a5 5 0 0 0 -5 5v28s0 .06 0 .09a6 6 0 0 0 -5 5.91v3a3 3 0 0 0 3 3h.08a7 7 0 0 0 2 4h-3.08a5 5 0 0 0 -5 5v5a1 1 0 0 0 2 0v-5a3 3 0 0 1 3-3h16a3 3 0 0 1 3 3v5a1 1 0 0 0 2 0v-5a5 5 0 0 0 -5-5h-3.11a6.8 6.8 0 0 0 .88-1 1 1 0 0 0 .23 0h30a1 1 0 0 0 1-1v-1a4 4 0 0 0 -4-4h-2.38l-2-4h13.38a5 5 0 0 0 5-5v-28a5 5 0 0 0 -5-5zm-50 42v-3a4 4 0 0 1 4-4h.56a3.91 3.91 0 0 0 -.56 2 1 1 0 0 0 2 0 2 2 0 0 1 4 0 1 1 0 0 0 2 0 3.91 3.91 0 0 0 -.56-2h.56a4 4 0 0 1 4 4v3a1 1 0 0 1 -1 1h-14a1 1 0 0 1 -1-1zm24-12a1 1 0 1 1 -1 1 1 1 0 0 1 1-1zm-1-1.82a3 3 0 1 0 2 0v-4.18h1a4 4 0 0 0 3 3.86v8.14h-10v-9a3 3 0 0 1 3-3h1zm4-19.18a1 1 0 0 0 1-1 2 2 0 0 1 4 0 1 1 0 0 0 2 0 3.93 3.93 0 0 0 -.53-1.95 4 4 0 0 1 3.53 3.95v2h-14v-2a4 4 0 0 1 3.53-3.95 3.93 3.93 0 0 0 -.53 1.95 1 1 0 0 0 1 1zm-2 5h10v3a5 5 0 0 1 -10 0zm10 14.2a2.89 2.89 0 0 0 -1.12.68 3 3 0 0 0 0 4.24 1 1 0 0 0 1.41-1.41 1 1 0 0 1 0-1.42 1 1 0 0 1 1.42 0 1 1 0 0 1 0 1.42 1 1 0 0 0 0 1.41 1 1 0 0 0 1.41 0 3 3 0 0 0 0-4.24 2.89 2.89 0 0 0 -1.12-.68v-4.2h1a3 3 0 0 1 3 3v9h-10v-8.14a4 4 0 0 0 3-3.86h1zm-7-4.49a7 7 0 0 0 4 0v.29a2 2 0 0 1 -4 0zm-10 18.29v-3a6.64 6.64 0 0 0 -.09-1h3.47l-2 4zm-10 7a5 5 0 0 1 -4.9-4h9.8a5 5 0 0 1 -4.9 4zm35-3h-28.29a8.05 8.05 0 0 0 .21-1h.08a3 3 0 0 0 2.2-1h23.8a2 2 0 0 1 2 2zm-6.62-4h-14.76l2-4h10.76zm16.62-9a3 3 0 0 1 -3 3h-7v-9a5 5 0 0 0 -5-5h-3.11a7 7 0 0 0 2.11-5v-3a2 2 0 0 0 2-2v-2a6 6 0 0 0 -6-6h-6a6 6 0 0 0 -6 6v2a2 2 0 0 0 2 2v3a7 7 0 0 0 2.11 5h-3.11a5 5 0 0 0 -5 5v8.69a6 6 0 0 0 -5-2.69h-7v-28a3 3 0 0 1 3-3h42a3 3 0 0 1 3 3z"/><path d="m25 10h-2v-2a1 1 0 0 0 -1-1h-4a1 1 0 0 0 -1 1v2h-2a1 1 0 0 0 -1 1v4a1 1 0 0 0 1 1h2v2a1 1 0 0 0 1 1h4a1 1 0 0 0 1-1v-2h2a1 1 0 0 0 1-1v-4a1 1 0 0 0 -1-1zm-1 4h-2a1 1 0 0 0 -1 1v2h-2v-2a1 1 0 0 0 -1-1h-2v-2h2a1 1 0 0 0 1-1v-2h2v2a1 1 0 0 0 1 1h2z"/><path d="m53 9.6a3.12 3.12 0 0 0 -4.21 4.61l3.5 3.5a1 1 0 0 0 1.42 0l3.5-3.5a3.12 3.12 0 0 0 -4.21-4.61zm2.79 3.19-2.79 2.8-2.79-2.8a1.12 1.12 0 1 1 1.58-1.58l.5.5a1 1 0 0 0 1.42 0l.5-.5a1.12 1.12 0 0 1 1.58 1.58z"/><path d="m21 22h-6a1 1 0 0 0 0 2h6a1 1 0 0 0 0-2z"/><path d="m19 26h-4a1 1 0 0 0 0 2h4a1 1 0 0 0 0-2z"/><path d="m57 21h-4a1 1 0 0 0 -1 1v12a1 1 0 0 0 1 1h4a1 1 0 0 0 1-1v-12a1 1 0 0 0 -1-1zm-3 6h2v2h-2zm2-4v2h-2v-2zm0 10h-2v-2h2z"/><path d="m8 57a1 1 0 0 0 -1 1v3a1 1 0 0 0 2 0v-3a1 1 0 0 0 -1-1z"/><path d="m21 57a1 1 0 0 0 -1 1v3a1 1 0 0 0 2 0v-3a1 1 0 0 0 -1-1z"/><path d="m51 52h-20a1 1 0 0 0 -1 1v8a1 1 0 0 0 1 1h20a1 1 0 0 0 1-1v-8a1 1 0 0 0 -1-1zm-1 4h-2v-2h2zm-12 0h-2v-2h2zm2-2h2v2h-2zm-2 4v2h-2v-2zm2 0h2v2h-2zm4 0h2v2h-2zm0-2v-2h2v2zm-10-2v2h-2v-2zm-2 4h2v2h-2zm16 2v-2h2v2z"/><path d="m58.5 53a3.5 3.5 0 0 0 -3.5 3.5v2.5a2 2 0 0 0 2 2h3a2 2 0 0 0 2-2v-2.5a3.5 3.5 0 0 0 -3.5-3.5zm-1.5 6v-2.5a1.5 1.5 0 0 1 3 0v2.5z"/></g></svg>