<svg height="512" viewBox="0 0 64 64" width="512" xmlns="http://www.w3.org/2000/svg"><path d="m20 61h-10l-2-17h14z" fill="#79bd9a"/><circle cx="15" cy="50" fill="#a8dba8" r="2"/><path d="m20 3h-10l-2 17h14z" fill="#79bd9a"/><path d="m8 21v-1h-1a4 4 0 0 0 -4 4v16a4 4 0 0 0 4 4h16a4 4 0 0 0 4-4 19 19 0 0 1 -19-19z" fill="#cff09e"/><path d="m15.18 28.77.84-.84a3.56 3.56 0 0 1 5.05 0 3.56 3.56 0 0 1 0 5l-5.89 5.9-5.9-5.83a3.56 3.56 0 0 1 0-5 3.56 3.56 0 0 1 5.05 0z" fill="#a8dba8"/><circle cx="15" cy="14" fill="#a8dba8" r="2"/><path d="m39 39v-22h-2a4 4 0 0 0 -4 4v36a4 4 0 0 0 4 4h20a4 4 0 0 0 4-4v-6h-10a12 12 0 0 1 -12-12z" fill="#cff09e"/><path d="m42.18 28.14.56-.56a2.38 2.38 0 0 1 3.37 0 2.38 2.38 0 0 1 0 3.37l-3.93 3.93-3.94-3.88a2.38 2.38 0 0 1 0-3.37 2.38 2.38 0 0 1 3.37 0z" fill="#a8dba8"/><rect fill="#a8dba8" height="4" rx="2" width="10" x="42" y="53"/><g fill="#3b8686"><path d="m23 19h-.11l-1.89-16.12a1 1 0 1 0 -2 .24l1.88 15.88h-11.75l1.87-15.88a1 1 0 1 0 -2-.24l-1.89 16.12h-.11a5 5 0 0 0 -5 5v16a5 5 0 0 0 5 5h.11l1.89 16.12a1 1 0 0 0 2-.24l-1.87-15.88h11.75l-1.88 15.88a1 1 0 0 0 .88 1.12h.12a1 1 0 0 0 1-.88l1.89-16.12h.11a5 5 0 0 0 5-5v-16a5 5 0 0 0 -5-5zm3 21a3 3 0 0 1 -3 3h-16a3 3 0 0 1 -3-3v-16a3 3 0 0 1 3-3h16a3 3 0 0 1 3 3z"/><path d="m15 47a3 3 0 1 0 3 3 3 3 0 0 0 -3-3zm0 4a1 1 0 1 1 1-1 1 1 0 0 1 -1 1z"/><circle cx="15" cy="56" r="1"/><path d="m18.55 25.88a4.55 4.55 0 0 0 -3.24 1.34l-.13.13-.18-.13a4.57 4.57 0 0 0 -6.47 0 4.59 4.59 0 0 0 0 6.47l5.9 5.9a1 1 0 0 0 .71.29 1 1 0 0 0 .7-.29l5.9-5.9a4.58 4.58 0 0 0 -3.23-7.81zm1.82 6.39-5.19 5.19-5.18-5.19a2.53 2.53 0 0 1 -.76-1.82 2.58 2.58 0 0 1 2.58-2.57 2.6 2.6 0 0 1 1.82.75l.84.85a1 1 0 0 0 1.41 0l.85-.85a2.64 2.64 0 0 1 3.64 0 2.6 2.6 0 0 1 .75 1.82 2.56 2.56 0 0 1 -.76 1.82z"/><path d="m15 17a3 3 0 1 0 -3-3 3 3 0 0 0 3 3zm0-4a1 1 0 1 1 -1 1 1 1 0 0 1 1-1z"/><circle cx="15" cy="8" r="1"/><circle cx="23" cy="24" r="1"/><path d="m10 39h-3a1 1 0 0 0 0 2h3a1 1 0 0 0 0-2z"/><path d="m57 16h-20a5 5 0 0 0 -5 5v36a5 5 0 0 0 5 5h20a5 5 0 0 0 5-5v-36a5 5 0 0 0 -5-5zm3 41a3 3 0 0 1 -3 3h-20a3 3 0 0 1 -3-3v-36a3 3 0 0 1 3-3h20a3 3 0 0 1 3 3z"/><path d="m41.47 35.59a1 1 0 0 0 .71.29 1 1 0 0 0 .7-.29l3.94-3.94a3.37 3.37 0 0 0 1-2.39 3.4 3.4 0 0 0 -1-2.39 3.46 3.46 0 0 0 -4.64-.14 3.46 3.46 0 0 0 -4.64.14 3.36 3.36 0 0 0 -1 2.39 3.32 3.32 0 0 0 1 2.39zm-2.47-7.31a1.4 1.4 0 0 1 2 0l.56.57a1 1 0 0 0 1.41 0l.57-.57a1.38 1.38 0 1 1 1.95 2l-3.22 3.22-3.27-3.26a1.4 1.4 0 0 1 0-2z"/><path d="m50 52h-6a3 3 0 0 0 0 6h6a3 3 0 0 0 0-6zm0 4h-6a1 1 0 0 1 0-2h6a1 1 0 0 1 0 2z"/><circle cx="38" cy="21" r="1"/><circle cx="42" cy="21" r="1"/><path d="m56 43h-6a1 1 0 0 0 -.83.45l-1.05 1.55-2.23-4.46a1 1 0 0 0 -.83-.55 1 1 0 0 0 -.89.45l-1.71 2.56h-5.46a1 1 0 0 0 0 2h6a1 1 0 0 0 .83-.45l1.05-1.55 2.23 4.46a1 1 0 0 0 .83.55h.06a1 1 0 0 0 .83-.45l1.71-2.56h5.46a1 1 0 0 0 0-2z"/><path d="m52 35a1 1 0 0 0 1-1v-7a1 1 0 0 0 -2 0v7a1 1 0 0 0 1 1z"/><path d="m56 26a1 1 0 0 0 -1 1v7a1 1 0 0 0 2 0v-7a1 1 0 0 0 -1-1z"/><path d="m26 4a9 9 0 0 1 9 9 1 1 0 0 0 2 0 11 11 0 0 0 -11-11 1 1 0 0 0 0 2z"/><path d="m33 13a7 7 0 0 0 -7-7 1 1 0 0 0 0 2 5 5 0 0 1 5 5 1 1 0 0 0 2 0z"/><path d="m26 10a1 1 0 0 0 0 2 1 1 0 0 1 1 1 1 1 0 0 0 2 0 3 3 0 0 0 -3-3z"/></g></svg>