<svg height="512" viewBox="0 0 64 64" width="512" xmlns="http://www.w3.org/2000/svg"><path d="m34 19h-18a4 4 0 0 0 -4 4v12h26v-12a4 4 0 0 0 -4-4z" fill="#a8dba8"/><path d="m17 35v18h6v-12h4v12h6v-18z" fill="#79bd9a"/><path d="m38 33h1a2 2 0 0 1 2 2 2 2 0 0 1 -2 2h-1a0 0 0 0 1 0 0v-4a0 0 0 0 1 0 0z" fill="#79bd9a"/><circle cx="27" cy="28" fill="#cff09e" r="2"/><path d="m25 19a6 6 0 0 1 -3-.81v1.81a3 3 0 0 0 6 0v-1.81a6 6 0 0 1 -3 .81z" fill="#cff09e"/><path d="m33 35v2.5a2.5 2.5 0 0 0 2 2.5v-1a2 2 0 0 1 2-2h1v-2z" fill="#cff09e"/><path d="m12 37.5a2.5 2.5 0 0 0 2 2.5v-1a2 2 0 0 1 2-2h1v-2h-5z" fill="#cff09e"/><path d="m20 55a4 4 0 0 1 -4 4h-4v2h11v-8h-3z" fill="#cff09e"/><path d="m30 55v-2h-3v8h11v-2h-4a4 4 0 0 1 -4-4z" fill="#cff09e"/><path d="m28.07 15a2 2 0 0 1 -1.66-.89l-.74-1.11h-1.34l-.74 1.11a2 2 0 0 1 -.8.68l-1.79-1.79h-2a5.93 5.93 0 0 0 1.54 4h1.39a2 2 0 0 0 1.66-.89l1.41-2.11 1.41 2.11a2 2 0 0 0 1.66.89h1.39a6 6 0 0 0 1.18-2z" fill="#cff09e"/><path d="m25 19a5.71 5.71 0 0 0 1.5-.2 6 6 0 0 1 -4.39-4.69l-3.11-3.11v2a6 6 0 0 0 6 6z" fill="#cff09e"/><path d="m19 7v4h3.55a4 4 0 0 1 3.45-2h5v-2z" fill="#cff09e"/><path d="m32 11h-5l4 4h1a1 1 0 0 0 1-1v-2a1 1 0 0 0 -1-1z" fill="#a8dba8"/><path d="m18 11a1 1 0 0 0 -1 1v2a1 1 0 0 0 1 1h3.93a2 2 0 0 0 .86-.21l-3.79-3.79z" fill="#a8dba8"/><path d="m30 3h-14v4a4 4 0 0 0 3 3.86v-3.86h12v3.86a4 4 0 0 0 -1-7.86z" fill="#79bd9a"/><path d="m3 3h8v4h-8z" fill="#79bd9a"/><path d="m46 46h8v4h-8z" fill="#79bd9a"/><path d="m7.12 46.12.5-.5a2.12 2.12 0 0 1 3 0 2.12 2.12 0 0 1 0 3l-3.5 3.5-3.5-3.5a2.12 2.12 0 0 1 0-3 2.12 2.12 0 0 1 3 0z" fill="#cff09e"/><path d="m48 14v-11h-3a2 2 0 0 0 -2 2v20a2 2 0 0 0 2 2h14a2 2 0 0 0 2-2v-3h-5a8 8 0 0 1 -8-8z" fill="#cff09e"/><g fill="#3b8686"><path d="m34 40.65a3.45 3.45 0 0 0 1.5.35 3.5 3.5 0 0 0 3.5-3 3 3 0 0 0 0-6v-9a5 5 0 0 0 -5-5h-4.11a7.09 7.09 0 0 0 1.41-2h.7a2 2 0 0 0 2-2v-2a2 2 0 0 0 -.56-1.39 5 5 0 0 0 -3.44-8.61h-14a1 1 0 0 0 -1 1v4a5 5 0 0 0 1.56 3.61 2 2 0 0 0 -.56 1.39v2a2 2 0 0 0 2 2h.7a7.09 7.09 0 0 0 1.41 2h-4.11a5 5 0 0 0 -5 5v8h-4a1 1 0 0 0 -1 1v9a1 1 0 0 0 2 0v-8h3v4.5a3.5 3.5 0 0 0 3.5 3.5 3.45 3.45 0 0 0 1.5-.35v14.35h-2a3 3 0 0 0 -3 3v3a1 1 0 0 0 1 1h11a1 1 0 0 0 1-1v-19h2v19a1 1 0 0 0 1 1h11a1 1 0 0 0 1-1v-3a3 3 0 0 0 -3-3h-2zm-16-7.65h3a1 1 0 0 0 .45-.11l2-1a1 1 0 0 0 -.9-1.78l-1.79.89h-2.76v-2h6.18a3 3 0 0 0 5.64 0h2.18v5h-14zm8-5a1 1 0 1 1 1 1 1 1 0 0 1 -1-1zm11 9.5a1.5 1.5 0 0 1 -3 0v-1.5h3zm3-2.5a1 1 0 0 1 -1 1v-2a1 1 0 0 1 1 1zm-17-15.3a6.82 6.82 0 0 0 4 0v.3a2 2 0 0 1 -4 0zm9-5.7h-3.93a1 1 0 0 1 -.83-.45l-1.04-1.55h5.8zm-2-4h-10v-2h10zm-13-6h13a3 3 0 0 1 2 5.22v-2.22a1 1 0 0 0 -1-1h-12a1 1 0 0 0 -1 1v2.22a3 3 0 0 1 -1-2.22zm1 8h5.8l-1 1.55a1 1 0 0 1 -.83.45h-3.97zm3.93 4a3 3 0 0 0 2.5-1.34l.57-.86.57.86a3 3 0 0 0 2.5 1.34h.93a5 5 0 0 1 -8 0zm-8.93 7a3 3 0 0 1 3-3h5a4 4 0 0 0 8 0h5a3 3 0 0 1 3 3v11h-3v-9a1 1 0 0 0 -2 0v2h-2.18a3 3 0 0 0 -5.64 0h-6.18v-2a1 1 0 0 0 -2 0v6h-3zm1.5 16a1.5 1.5 0 0 1 -1.5-1.5v-4.5h3v4.5a1.5 1.5 0 0 1 -1.5 1.5zm7.5 21h-9v-2a1 1 0 0 1 1-1h3a1 1 0 0 0 1-1v-2h4zm1-20a1 1 0 0 0 -1 1v11h-4v-16h14v16h-4v-11a1 1 0 0 0 -1-1zm13 17a1 1 0 0 1 1 1v2h-9v-6h4v2a1 1 0 0 0 1 1z"/><path d="m3 8h3v4a1 1 0 0 0 1 1h6a1 1 0 0 0 0-2h-5v-3h3a1 1 0 0 0 1-1v-4a1 1 0 0 0 -1-1h-8a1 1 0 0 0 -1 1v4a1 1 0 0 0 1 1zm1-4h6v2h-6z"/><path d="m54 45h-8a1 1 0 0 0 -1 1v4a1 1 0 0 0 1 1h8a1 1 0 0 0 1-1v-4a1 1 0 0 0 -1-1zm-1 4h-6v-2h6z"/><path d="m54 53h-5a1 1 0 0 0 0 2h5a1 1 0 0 0 0-2z"/><path d="m52 57a1 1 0 0 0 -1 1v2h-9a1 1 0 0 0 0 2h10a1 1 0 0 0 1-1v-3a1 1 0 0 0 -1-1z"/><path d="m59 2h-14a3 3 0 0 0 -3 3v20a3 3 0 0 0 3 3h14a3 3 0 0 0 3-3v-20a3 3 0 0 0 -3-3zm1 23a1 1 0 0 1 -1 1h-14a1 1 0 0 1 -1-1v-20a1 1 0 0 1 1-1h14a1 1 0 0 1 1 1z"/><path d="m54 22h-4a1 1 0 0 0 0 2h4a1 1 0 0 0 0-2z"/><circle cx="47" cy="7" r="1"/><circle cx="51" cy="7" r="1"/><path d="m49 15a1 1 0 0 0 -2 0v3a1 1 0 0 0 2 0z"/><path d="m51 13v5a1 1 0 0 0 2 0v-5a1 1 0 0 0 -2 0z"/><path d="m56 9a1 1 0 0 0 -1 1v8a1 1 0 0 0 2 0v-8a1 1 0 0 0 -1-1z"/><circle cx="53" cy="31" r="1"/><circle cx="49" cy="35" r="1"/><circle cx="53" cy="35" r="1"/><circle cx="45" cy="35" r="1"/><path d="m12.24 47.12a3.12 3.12 0 0 0 -5.12-2.4 3.12 3.12 0 0 0 -4.21 4.61l3.5 3.5a1 1 0 0 0 .71.29 1 1 0 0 0 .71-.29l3.5-3.5a3.09 3.09 0 0 0 .91-2.21zm-2.33.79-2.79 2.8-2.79-2.8a1.12 1.12 0 0 1 .79-1.91 1.09 1.09 0 0 1 .79.33l.5.5a1 1 0 0 0 1.42 0l.5-.5a1.11 1.11 0 0 1 1.58 0 1.11 1.11 0 0 1 0 1.58z"/></g></svg>