<svg height="512" viewBox="0 0 64 64" width="512" xmlns="http://www.w3.org/2000/svg"><path d="m30 49v5a3 3 0 0 0 3 3 1.27 1.27 0 0 1 1.24 1l.44 1.75a1.69 1.69 0 0 0 1.64 1.25 1.68 1.68 0 0 0 1.68-1.68v-10.32z" fill="#79bd9a"/><path d="m44 39a6 6 0 0 0 -4-5.66c0-.11 0-.22 0-.34a7 7 0 0 0 -7-7 4.93 4.93 0 0 0 -.55 0 10.48 10.48 0 0 0 -18.46 1 6.5 6.5 0 0 0 -.99 0 7 7 0 0 0 -7 6.41 5 5 0 1 0 5.05 8.5 6 6 0 0 0 9.07 4.19 5 5 0 0 0 2.88.9 5.08 5.08 0 0 0 2.06-.45 5 5 0 0 0 4.94 4.45h.18a3 3 0 0 0 5.64 0h.18a5 5 0 0 0 4.7-6.65 6 6 0 0 0 3.3-5.35z" fill="#a8dba8"/><path d="m54 27a16 16 0 0 1 -15-21.46 14 14 0 0 0 -1 22.18v9.28l6.94-6.17a13.74 13.74 0 0 0 12.14-4.13 16.33 16.33 0 0 1 -3.08.3z" fill="#cff09e"/><path d="m41 11h12v12h-12z" fill="#a8dba8"/><path d="m45 15h4v4h-4z" fill="#79bd9a"/><g fill="#3b8686"><path d="m17 42a1 1 0 0 1 -1-1 1 1 0 0 0 -2 0 3 3 0 0 0 3 3 1 1 0 0 0 0-2z"/><path d="m13 30a4 4 0 0 0 -4 4 1 1 0 0 0 2 0 2 2 0 0 1 2-2 1 1 0 0 0 0-2z"/><path d="m8 38a1 1 0 0 0 -2 0 2 2 0 0 0 2 2 1 1 0 0 0 0-2z"/><path d="m20.17 32.17a1 1 0 0 0 1.42 1.42 2 2 0 0 1 2.82 0 1 1 0 0 0 .71.29 1 1 0 0 0 .71-.29 1 1 0 0 0 0-1.42 4.1 4.1 0 0 0 -5.66 0z"/><path d="m37 39a1 1 0 0 0 -2 0 3 3 0 0 0 3 3 1 1 0 0 0 0-2 1 1 0 0 1 -1-1z"/><path d="m32 33a1 1 0 0 0 -1 1 2 2 0 0 1 -2 2 1 1 0 0 0 0 2 4 4 0 0 0 4-4 1 1 0 0 0 -1-1z"/><path d="m33 29a1 1 0 0 0 0 2 2 2 0 0 1 2 2 1 1 0 0 0 2 0 4 4 0 0 0 -4-4z"/><path d="m32 47a1 1 0 0 1 -1-1 1 1 0 0 0 -2 0 3 3 0 0 0 3 3 1 1 0 0 0 0-2z"/><circle cx="21" cy="25" r="1"/><circle cx="23" cy="43" r="1"/><circle cx="31" cy="40" r="1"/><circle cx="15" cy="37" r="1"/><path d="m56 18a1 1 0 0 0 0-2h-2v-2h2a1 1 0 0 0 0-2h-2v-1a1 1 0 0 0 -1-1h-1v-2a1 1 0 0 0 -2 0v2h-2v-2a1 1 0 0 0 -2 0v2h-2v-2a1 1 0 0 0 -2 0v2h-1a1 1 0 0 0 -1 1v1h-2a1 1 0 0 0 0 2h2v2h-2a1 1 0 0 0 0 2h2v2h-2a1 1 0 0 0 0 2h2v1a1 1 0 0 0 1 1h1v2a1 1 0 0 0 2 0v-2h2v2a1 1 0 0 0 2 0v-2h2v2a1 1 0 0 0 2 0v-2h1a1 1 0 0 0 1-1v-1h2a1 1 0 0 0 0-2h-2v-2zm-4 4h-10v-10h10z"/><path d="m45 20h4a1 1 0 0 0 1-1v-4a1 1 0 0 0 -1-1h-4a1 1 0 0 0 -1 1v4a1 1 0 0 0 1 1zm1-4h2v2h-2z"/><path d="m47 2a15 15 0 0 0 -12.58 23.13 8.33 8.33 0 0 0 -1.42-.13 11.42 11.42 0 0 0 -9.47-5 11.56 11.56 0 0 0 -10.1 6h-.43a8.05 8.05 0 0 0 -7.9 6.75 6 6 0 0 0 2.9 11.25 5.76 5.76 0 0 0 2.45-.54 7 7 0 0 0 9.67 3.8 6 6 0 0 0 4.2.59 6 6 0 0 0 4.68 4v2.15a4 4 0 0 0 4 4 .28.28 0 0 1 .27.21l.44 1.79a2.69 2.69 0 0 0 5.29-.68v-8.13a6 6 0 0 0 3-5.19 5.18 5.18 0 0 0 -.13-1.17 7 7 0 0 0 1-10.82l2.39-2.13a13.64 13.64 0 0 0 1.74.12 15 15 0 0 0 0-30zm-10 57.32a.69.69 0 0 1 -1.35.16l-.44-1.75a2.27 2.27 0 0 0 -2.21-1.73 2 2 0 0 1 -2-2v-.54a4 4 0 0 0 5.46-1.46l.54-.06zm6-20.32a5 5 0 0 1 -2.75 4.46 5 5 0 0 1 -5.77-.94 1 1 0 0 0 -1.43 1.48 7 7 0 0 0 6.95 1.71 2.58 2.58 0 0 1 0 .29 4 4 0 0 1 -2.36 3.65h-.08a3.85 3.85 0 0 1 -1.51.31h-.19a1 1 0 0 0 -1 .67 2 2 0 0 1 -3.76 0 1 1 0 0 0 -1-.67l-.1.04a4 4 0 0 1 -3.86-3.12 5 5 0 0 0 -2.14-8.78 3.51 3.51 0 0 0 -3.5-3.1 1 1 0 0 0 0 2 1.5 1.5 0 0 1 1.5 1.5v.5a1 1 0 0 0 1 1 3 3 0 0 1 1.5 5.6.9.9 0 0 0 -.18.16 4 4 0 0 1 -3.6-.48 1 1 0 0 0 -1.1 0 5 5 0 0 1 -2.62.72 5 5 0 0 1 -4.94-4.24 1 1 0 0 0 -1.6-.63 4 4 0 1 1 -4-6.81 1 1 0 0 0 .54-.83 6 6 0 0 1 6-5.49 5.58 5.58 0 0 1 .85.07 5.91 5.91 0 0 1 2.81 1.21 5 5 0 0 0 -1.66 3.72 1 1 0 0 0 2 0 3 3 0 0 1 3-3 1 1 0 0 0 0-2 5 5 0 0 0 -1.46.24 8 8 0 0 0 -3-1.83 9.54 9.54 0 0 1 8-4.41 9.42 9.42 0 0 1 7.21 3.34 8 8 0 0 0 -3 1.69 5.42 5.42 0 0 0 -3.19-1 1 1 0 0 0 0 2 3.5 3.5 0 0 1 3.44 3.47 1 1 0 0 0 2 0 5.48 5.48 0 0 0 -.91-3 6 6 0 0 1 3.41-1.5s0 0 0 0a6.08 6.08 0 0 1 4.5 1.54v8.46a1 1 0 0 0 .59.91 1 1 0 0 0 .41.09 1 1 0 0 0 .66-.25l2.71-2.41a5 5 0 0 1 1.63 3.66zm4-9a12.48 12.48 0 0 1 -1.91-.16 1 1 0 0 0 -.81.24l-5.28 4.69v-7.05a1 1 0 0 0 -.36-.77 13 13 0 1 1 8.36 3.05z"/><path d="m14.64 8.64a9 9 0 0 1 12.72 0 1 1 0 0 0 .71.29 1 1 0 0 0 .71-.29 1 1 0 0 0 0-1.42 11 11 0 0 0 -15.56 0 1 1 0 1 0 1.42 1.42z"/><path d="m25.24 11.76a1 1 0 0 0 .76-1.71 7 7 0 0 0 -9.9 0 1 1 0 0 0 1.41 1.41 5 5 0 0 1 7.08 0 1 1 0 0 0 .65.3z"/><path d="m23.12 14.29a1 1 0 0 0 0-1.41 3.08 3.08 0 0 0 -4.24 0 1 1 0 0 0 1.41 1.41 1 1 0 0 1 1.42 0 1 1 0 0 0 1.41 0z"/><circle cx="21" cy="17" r="1"/></g></svg>