<svg version="1.2" xmlns="http://www.w3.org/2000/svg" viewBox="0 0 512 512" width="512" height="512">
	<title>right-arrow-svg</title>
	<style>
		.s0 { fill: #00d8de } 
		.s1 { fill: #00a5ff } 
		.s2 { fill: #0087ff } 
		.s3 { fill: #05c1c1 } 
	</style>
	<path id="Layer" class="s0" d="m125.4 242.5l61.4-61.4 126.4-126.3c7.4-7.5 19.5-7.5 26.9 0l46.5 46.4c7.4 7.5 7.4 19.5 0 27l-52.9 52.9-74.9 74.9 127.8 127.8c7.4 7.5 7.4 19.5 0 27l-46.5 46.4c-7.4 7.5-19.5 7.5-26.9 0l-187.8-187.7c-7.4-7.5-7.4-19.6 0-27z"/>
	<path id="Layer" class="s1" d="m213.5 154.5l99.7-99.7c7.4-7.5 19.5-7.5 26.9 0l46.5 46.4c7.4 7.5 7.4 19.5 0 27l-52.9 52.9-46.8 46.8-28.1 28.1-73.4-73.4z"/>
	<path id="Layer" class="s2" d="m203.2 164.7l73.4 73.5-17.8 17.8-73.4-73.4z"/>
	<g id="Layer">
		<path id="Layer" class="s3" d="m18 488.6c4.1 0 7.5 3.3 7.5 7.5v8.4c0 4.1-3.4 7.5-7.5 7.5-4.2 0-7.5-3.4-7.5-7.5v-8.4c0-4.2 3.3-7.5 7.5-7.5z"/>
		<path id="Layer" class="s3" d="m62.3 488.6c4.1 0 7.5 3.3 7.5 7.5v8.4c0 4.1-3.4 7.5-7.5 7.5-4.2 0-7.5-3.4-7.5-7.5v-8.4c0-4.2 3.3-7.5 7.5-7.5z"/>
		<path id="Layer" class="s3" d="m106.5 488.6c4.2 0 7.5 3.3 7.5 7.5v8.4c0 4.1-3.3 7.5-7.5 7.5-4.1 0-7.5-3.4-7.5-7.5v-8.4c0-4.2 3.4-7.5 7.5-7.5z"/>
	</g>
	<g id="Layer">
		<path id="Layer" class="s2" d="m398 7.5c0-4.1 3.3-7.5 7.5-7.5 4.1 0 7.5 3.4 7.5 7.5v8.4c0 4.2-3.4 7.5-7.5 7.5-4.2 0-7.5-3.3-7.5-7.5z"/>
		<path id="Layer" class="s2" d="m449.7 0c4.2 0 7.5 3.4 7.5 7.5v8.4c0 4.2-3.3 7.5-7.5 7.5-4.1 0-7.5-3.3-7.5-7.5v-8.4c0-4.1 3.4-7.5 7.5-7.5z"/>
		<path id="Layer" class="s2" d="m494 0c4.2 0 7.5 3.4 7.5 7.5v8.4c0 4.2-3.3 7.5-7.5 7.5-4.1 0-7.5-3.3-7.5-7.5v-8.4c0-4.1 3.4-7.5 7.5-7.5z"/>
	</g>
	<g id="Layer">
	</g>
	<g id="Layer">
	</g>
	<g id="Layer">
	</g>
	<g id="Layer">
	</g>
	<g id="Layer">
	</g>
	<g id="Layer">
	</g>
	<g id="Layer">
	</g>
	<g id="Layer">
	</g>
	<g id="Layer">
	</g>
	<g id="Layer">
	</g>
	<g id="Layer">
	</g>
	<g id="Layer">
	</g>
	<g id="Layer">
	</g>
	<g id="Layer">
	</g>
	<g id="Layer">
	</g>
</svg>