<?xml version="1.0" encoding="iso-8859-1"?>
<!-- Generator: Adobe Illustrator 19.0.0, SVG Export Plug-In . SVG Version: 6.00 Build 0)  -->
<svg version="1.1" id="Capa_1" xmlns="http://www.w3.org/2000/svg" xmlns:xlink="http://www.w3.org/1999/xlink" x="0px" y="0px"
	 viewBox="0 0 512 512" style="enable-background:new 0 0 512 512;" xml:space="preserve">
<path style="fill:#00D8DE;" d="M386.591,269.477l-187.744,187.77c-7.451,7.452-19.533,7.453-26.984,0.001l-46.452-46.452
	c-7.451-7.451-7.451-19.531-0.001-26.982l127.802-127.829l-74.918-74.918l-52.881-52.881c-7.451-7.451-7.451-19.532,0-26.984
	l46.451-46.451c7.451-7.451,19.532-7.451,26.983,0l126.316,126.316l61.427,61.427C394.041,249.946,394.041,262.026,386.591,269.477z
	"/>
<path style="fill:#00A5FF;" d="M326.616,182.581l-73.435,73.435l-28.069-28.068l-46.82-46.879l-52.881-52.881
	c-7.451-7.451-7.451-19.532,0-26.984l46.447-46.447c7.453-7.453,19.536-7.451,26.987,0.004l99.701,99.754L326.616,182.581z"/>
<polygon style="fill:#0087FF;" points="326.616,182.581 253.182,256.015 235.374,238.178 308.808,164.743 "/>
<g>
	<path style="fill:#05C1C1;" d="M494.01,488.583c-4.142,0-7.5,3.358-7.5,7.5v8.417c0,4.142,3.358,7.5,7.5,7.5s7.5-3.358,7.5-7.5
		v-8.417C501.51,491.941,498.152,488.583,494.01,488.583z"/>
	<path style="fill:#05C1C1;" d="M449.738,488.583c-4.142,0-7.5,3.358-7.5,7.5v8.417c0,4.142,3.358,7.5,7.5,7.5s7.5-3.358,7.5-7.5
		v-8.417C457.238,491.941,453.88,488.583,449.738,488.583z"/>
	<path style="fill:#05C1C1;" d="M405.465,488.583c-4.142,0-7.5,3.358-7.5,7.5v8.417c0,4.142,3.358,7.5,7.5,7.5s7.5-3.358,7.5-7.5
		v-8.417C412.965,491.941,409.607,488.583,405.465,488.583z"/>
</g>
<g>
	<path style="fill:#0087FF;" d="M114.035,7.5c0-4.142-3.358-7.5-7.5-7.5s-7.5,3.358-7.5,7.5v8.417c0,4.142,3.358,7.5,7.5,7.5
		s7.5-3.358,7.5-7.5V7.5z"/>
	<path style="fill:#0087FF;" d="M62.262,0c-4.142,0-7.5,3.358-7.5,7.5v8.417c0,4.142,3.358,7.5,7.5,7.5s7.5-3.358,7.5-7.5V7.5
		C69.762,3.358,66.404,0,62.262,0z"/>
	<path style="fill:#0087FF;" d="M17.99,0c-4.142,0-7.5,3.358-7.5,7.5v8.417c0,4.142,3.358,7.5,7.5,7.5s7.5-3.358,7.5-7.5V7.5
		C25.49,3.358,22.132,0,17.99,0z"/>
</g>
<g>
</g>
<g>
</g>
<g>
</g>
<g>
</g>
<g>
</g>
<g>
</g>
<g>
</g>
<g>
</g>
<g>
</g>
<g>
</g>
<g>
</g>
<g>
</g>
<g>
</g>
<g>
</g>
<g>
</g>
</svg>
